<?xml version="1.0" encoding="UTF-8"?>
<svg id="Calque_2" data-name="Calque 2" xmlns="http://www.w3.org/2000/svg" viewBox="0 0 417.42 499.99">
  <defs>
    <style>
      .cls-1 {
        fill: #fc5253;
      }

      .cls-2 {
        fill: #f8fbfc;
      }

      .cls-3 {
        fill: #ebe6da;
      }

      .cls-4 {
        fill: #ffd250;
      }

      .cls-5 {
        fill: #940025;
      }

      .cls-6 {
        fill: #cccfff;
      }

      .cls-7 {
        fill: #1fe2c5;
      }
    </style>
  </defs>
  <g id="Calque_1-2" data-name="Calque 1">
    <path class="cls-5" d="m417.34,332.31v83.81c-26.1,0-52.2.08-78.3-.09-3.74-.02-4.69.93-4.66,4.66.17,26.41.09,52.82.09,79.24h-84.87c1.34-4.53.94-9.18,1-13.8,1.23-4.47,2.23-9.02,3.72-13.41,5.14-15.15,13.6-27.99,26.17-38.17,12.48-10.1,26.54-16.22,42.39-18.44,3.48-.49,8.26,1.91,10.14-1.23,1.62-2.69.4-7.09.42-10.74,0-.33-.08-.66-.13-.99,0-5.32,0-10.64,0-15.96,0-8.63.02-17.26.03-25.89,0-5.02,0-10.05,0-15.07q.6-14.04-13.32-13.91c-.82,0-1.64.08-2.47.13-3.03,0-6.06,0-9.09,0-9.3-.1-18.6-.2-27.9-.3.87-1.09,1-2.34,1.02-3.7.22-12.9,5.67-23.9,14.42-32.69,10.32-10.37,23.19-16.12,38.32-15.33l.3.02c-.05,16.08-.04,32.16-.2,48.25-.03,2.81.82,3.69,3.65,3.67,16.09-.16,32.19-.15,48.28-.2,10.33.05,20.66.1,30.99.14Zm-59.9,42.4c0,4.98.16,9.97-.06,14.95-.13,2.92.94,3.62,3.69,3.57,9.64-.15,19.28-.13,28.92,0,2.52.03,3.49-.59,3.45-3.3-.15-10.13-.15-20.26,0-30.39.04-2.7-.9-3.35-3.44-3.31-9.64.12-19.28.14-28.92,0-2.74-.04-3.84.62-3.7,3.56.23,4.97.06,9.96.06,14.95Z"/>
    <path class="cls-4" d="m334.32,280.43c-15.14-.79-28,4.96-38.32,15.33-8.75,8.79-14.2,19.79-14.42,32.69-.02,1.36-.15,2.61-1.02,3.7-1.65.11-3.3.22-4.95.33-2.69,0-5.38,0-8.08,0-5.94-.07-11.87-.15-17.81-.22,1.82-4.14.46-8.51.88-12.75.7-.27.89-.83.99-1.53,2.19-14.37,7.95-27.3,17.33-38.23,16.1-18.75,36.42-29.6,61.57-30.18,2.45-.06,3.03-.8,3.02-3.13-.13-21.59-.16-43.18-.21-64.77.06-4.94.13-9.88.19-14.83.32-.1.64-.2.96-.31,6.02.15,12.05.1,17.98,1.32,7.97,2.73,15.98,5.24,23.36,9.53,16.5,9.57,28.02,23.28,35.6,40.64,2.89,6.62,3.73,13.74,5.93,20.51v11.97c-21.96.06-43.93.11-65.89.17-4.22-.39-8.45-.67-12.64-1.2-3.39-.42-4.52.65-4.43,4.23.23,8.9,0,17.82-.06,26.73Z"/>
    <path class="cls-5" d="m166.74.08h82.87c-.02,27.6-.04,55.2-.06,82.8,0,0,.06-.06.06-.06-2.33.08-4.66.15-6.99.23-25.29-.04-50.58-.07-75.87-.11-.06-9.66-.11-19.32-.17-28.99,0-7.98,0-15.97,0-23.95.05-9.98.11-19.95.16-29.93Z"/>
    <path class="cls-6" d="m249.55,82.88c.02-27.6.04-55.2.06-82.8,27.96,0,55.91,0,83.87,0,.05,4.01.11,8.03.16,12.04-2.31,14.89-7.91,28.41-17.17,40.33-8.46,10.9-19.2,18.82-31.79,24.51-7.43,3.36-15.29,4.84-23.07,6.81-3.97-.94-8.01-1-12.07-.9Z"/>
    <path class="cls-5" d="m352.45,167.85c-5.94-1.23-11.97-1.17-17.98-1.32.34-3.66-.31-7.25-.89-10.83.93-3.86,1.73-7.76,2.81-11.58,4.71-16.74,13.5-30.78,27.08-41.9,12.29-10.08,26.29-15.94,41.83-18.49,4.06.28,7.97-1.58,12.06-.84v84.8c-21.63.05-43.26.11-64.9.16Z"/>
    <path class="cls-6" d="m334.47,499.92c0-26.41.08-52.83-.09-79.24-.02-3.73.93-4.68,4.66-4.66,26.1.17,52.2.09,78.3.09,0,26.94-.04,53.88.07,80.81,0,2.49-.56,3.07-3.06,3.06-26.62-.1-53.25-.07-79.87-.07Zm52.56-45.94c-2.97.1-4.67,1.4-4.65,4.54.02,3.09,1.57,4.53,4.62,4.49,2.82-.03,4.23-1.5,4.36-4.24.14-3.01-1.33-4.6-4.33-4.79Zm-21.53,9.09c3.07-.08,4.86-1.28,4.92-4.42.05-2.75-1.2-4.39-3.99-4.6-2.92-.22-4.77.99-4.99,4.09-.21,3.01,1.27,4.59,4.06,4.93Zm.28,32.91c2.97-.1,4.67-1.41,4.64-4.54-.02-3.09-1.57-4.53-4.62-4.49-2.82.03-4.23,1.51-4.36,4.25-.14,3.01,1.34,4.6,4.34,4.79Zm-16.26-71.45c.21-1.81-.45-3.55-3.73-3.48-2.78.06-5.03.7-5.26,3.79-.22,3.02,1.55,4.93,4.52,5.18,3.09.26,4.37-1.67,4.47-5.49Zm20.77,50.12c1.34-3.74-2.28-4.02-4.25-4.19-2.29-.2-4.51,1.26-4.62,4.34-.12,3.4,2.35,4.82,4.79,4.89,2.38.07,4.86-1.34,4.09-5.04Zm16.68-4.29c-2.4.66-4.8.88-4.71,4.5.08,3.25,1.77,4.92,4.26,4.83,2.4-.08,4.97-1.4,4.87-4.81-.08-3.05-2.12-4.03-4.42-4.52Zm4.46,21.31c-.09-2.99-1.36-4.73-4.5-4.73-3.08,0-4.55,1.51-4.55,4.57,0,2.84,1.48,4.24,4.21,4.4,3.01.18,4.6-1.3,4.84-4.24Zm-5.28-45.65c2.99.22,5.05-.85,5.16-3.91.11-2.75-1.56-4.85-4.2-4.88-2.63-.03-4.9,1.18-4.8,4.74.08,2.85.84,4.45,3.83,4.06Zm17.24-21.03c-.33,2.86.81,4.85,3.85,5.02,2.75.15,4.87-1.52,4.92-4.15.05-2.62-1.12-4.93-4.69-4.84-2.81.08-4.5.75-4.08,3.97Zm-20.99-.5c-.12,3.66,1.17,5.59,3.9,5.46,2.32-.11,5-.61,5.08-4.02.07-2.96-1.2-4.68-4.24-4.83-3-.15-4.58,1.32-4.74,3.39Zm24.71,21.52c2.99.22,5.05-.85,5.16-3.91.11-2.75-1.56-4.85-4.2-4.88-2.63-.03-4.9,1.18-4.8,4.74.08,2.85.84,4.45,3.83,4.06Zm-57.7-3.97c.47-3.63-2.04-4.83-4.67-4.83-2.64,0-4.31,2.1-4.23,4.85.09,3.09,2.17,3.93,5.01,4.01,3.02.08,4.28-1.13,3.9-4.03Zm21.06-16.05c-.05-3.01-1.25-4.81-4.35-4.9-2.99-.09-4.52,1.3-4.73,4.37-.24,3.45,2.29,4.16,4.64,4.51,2.77.41,4.11-1.44,4.44-3.97Zm.06,14.4c.21-2.16-2.38-3.16-4.74-3.18-2.67-.02-4.37,2.06-4.31,4.86.06,2.82,1.89,3.78,4.6,4.01,3.48.29,4.18-1.7,4.45-5.69Zm37.36,55.54c3.21.31,4.18-2.21,4.28-4.33.14-2.97-2.02-4.76-5.04-4.6-2.79.15-3.68,2.08-3.83,4.77-.2,3.55,2.02,3.94,4.59,4.16Zm-1.34-41.88c-1.34.2-3.24,1.25-3.21,4.41.04,3.04,1.49,4.39,4.53,4.57,3.2.2,4.17-2.21,4.27-4.26.11-2.32-.81-4.93-5.59-4.73Zm-57.19,21.01c.95-3.39-1.58-4.41-4.01-4.5-2.48-.09-4.72,1.34-4.84,4.27-.14,3.36,2.7,4.7,5.07,4.83,1.95.1,4.51-1.32,3.78-4.59Zm.13-16.37c-.13-3.11-1.51-4.62-4.58-4.71-3.41-.09-4.32,2.43-4.26,4.74.06,2.06,1.03,4.45,4.21,4.31,3.03-.14,4.45-1.58,4.63-4.34Zm58.78,11.85c-3.29.26-5.07,1.07-5.05,4.45.02,3.31,1.99,4.85,4.29,4.67,2.11-.16,4.8-1.51,4.8-4.65,0-3.1-2.47-3.82-4.05-4.47Zm-58.84,21.84c.1-3.45-1.1-5.23-3.83-5.38-2.75-.16-4.86,1.47-4.97,4.09-.1,2.32.74,4.86,4.1,4.85,2.97,0,4.53-1.36,4.7-3.56Z"/>
    <path class="cls-3" d="m417.34,82.89c-4.09-.74-8,1.12-12.06.84-.42-.25-.81-.67-1.25-.74-27.76-4.39-48.01-19.35-61.43-43.77-4.64-8.45-6.85-17.77-8.97-27.1-.05-4.01-.11-8.03-.16-12.04,26.88,0,53.75.05,80.63-.08,2.76-.01,3.33.55,3.32,3.31-.13,26.52-.08,53.05-.08,79.58Z"/>
    <path class="cls-3" d="m50.93,6.08c.66-.02,1.32-.03,1.99-.05,5.87-3.42,12.81-3.44,18.97-5.96h12.98c0,10.01.02,20.01.03,30.02,0,7.92,0,15.84,0,23.77,0,9.62,0,19.24,0,28.86-.33.11-.67.21-1,.32-15.99,0-31.98,0-47.97,0-11.62-.01-23.23-.02-34.85-.03-.67-18.85,4.78-35.83,16.16-50.76,3.68-4.83,8.95-8.34,12.73-13.19,1.44-.86,3.26-1.21,4-3,0,0,0,0,0,0,1.25-.75,2.95-1.02,3.02-2.97,0,0,0,0,0,0,1.43-.02,2.87-.02,2.99-1.99,0,0,0,0,0,0,4.18-.51,7.6-2.69,10.96-5.01Z"/>
    <path class="cls-7" d="m84.89,53.86c0-7.92,0-15.84,0-23.77,2.58-5.34,4.7-10.83,8.73-15.48,6.56-7.55,14.89-11.75,24.19-14.54h15.97c3.88,2.25,8.49,2.46,12.41,4.83,9.88,5.95,16.62,14.27,20.37,25.1,0,7.98,0,15.97,0,23.95-4.91,14.27-14.5,23.86-28.79,28.76-7.99,0-15.98,0-23.97,0-3.32-1.89-7.2-2.46-10.41-4.71-8.72-6.13-14.96-14.09-18.51-24.14Zm40.89,7.07c11.31,0,18.98-7.64,18.98-18.92,0-11.12-7.85-18.99-18.96-19-11.12,0-18.99,7.86-18.98,18.97,0,11.3,7.65,18.94,18.96,18.94Z"/>
    <path class="cls-6" d="m250.6,486.12c-.05,4.62.34,9.27-1,13.8h-6.99c-6.99-1.61-13.98-3.21-20.97-4.82-.98-.43-1.97-.85-2.95-1.28-.37-1.13-1.21-.89-2.04-.72-19.38-9.35-33.74-23.7-43.1-43.07.56-1.26-.35-1.98-1.03-2.78-.32-.73-.64-1.47-.96-2.2.04-2.18-.73-4.08-2.05-5.79-.73-7.42-2.85-14.66-2.95-22.16.13-.29.21-.59.24-.91l-.05-.04c4.6-.01,9.19-.02,13.79-.03,1.35,1.95,3.37.58,5.02,1.02,24.7,6.42,43.7,20.23,56.07,42.82,4.51,8.24,6.33,17.32,8.96,26.16Z"/>
    <path class="cls-6" d="m119.81,422.94c19.19,9.77,33.19,24.49,42.1,44.07-.16.82-.19,1.6.73,2.04.42.98.84,1.97,1.27,2.95-.33,1.39.37,2.17,1.59,2.62-1.14,3.87.95,7.4,1.48,11.04.65,4.46.41,8.89.92,13.3-.11.31-.17.64-.16.97h-34.94c.29-3.64-.34-7.19-.98-10.76-1.77-9.85-6.48-18.3-13.58-25.02-9.5-9-21-13.82-34.39-13.23,0-11.88,0-23.76,0-35.64,9.55.66,19,2.04,28.35,4.07.45,1.22,1.22,1.92,2.62,1.59.79.15,1.44,1.11,2.37.4.45,1.22,1.22,1.92,2.62,1.59Z"/>
    <path class="cls-5" d="m83.85,415.28c0,11.88,0,23.76,0,35.64l.04.2c-6.03-.66-11.78.67-17.35,2.73-19.23,7.1-31.87,26.9-30.59,46.08H1c.02-.34-.04-.66-.17-.98-.64-23.99,9.15-43.67,25.17-60.77,1.31-1.08,3.34-1.21,4.07-3.06l1.93-1.92c.99-.98,2.73-.9,3.36-2.39,0,0,.3-.27.3-.27.92-.53,2.3-.35,2.69-1.72,0,0,.31-.27.3-.27.92-.53,2.3-.35,2.69-1.72,0,0,.32-.29.32-.29,2.9-1.18,5.8-2.37,8.31-4.31.65-.09,1.3-.18,1.95-.28,1.01-.57,2.03-1.15,3.04-1.72,9.48-2.5,19.08-4.34,28.88-4.94Z"/>
    <path class="cls-5" d="m334.32,280.43c.05-8.91.29-17.83.06-26.73-.09-3.58,1.04-4.66,4.43-4.23,4.2.53,8.43.81,12.64,1.2,11.41,3.54,22.63,7.43,32.27,14.87,11.96,9.22,21.13,20.44,27.07,34.46,3.07,7.26,4.36,14.9,6.55,22.34v9.98c-10.33-.05-20.66-.1-30.99-.14.49-27.6-23.02-52.13-51.73-51.71l-.3-.02Z"/>
    <path class="cls-2" d="m83.84,450.91c13.39-.59,24.9,4.23,34.39,13.23,7.09,6.72,11.8,15.17,13.58,25.02.64,3.57,1.28,7.12.98,10.76h-48.92c0-16.27,0-32.54.01-48.81l-.04-.2Z"/>
    <path class="cls-3" d="m83.88,451.11c0,16.27,0,32.54-.01,48.81h-47.92c-1.29-19.18,11.36-38.98,30.59-46.08,5.57-2.06,11.32-3.4,17.35-2.73Z"/>
    <path class="cls-2" d="m417.34,322.33c-2.19-7.44-3.47-15.08-6.55-22.34-5.94-14.03-15.11-25.24-27.07-34.46-9.65-7.44-20.87-11.32-32.27-14.87,21.96-.06,43.93-.11,65.89-.17v71.83Z"/>
    <path class="cls-2" d="m352.45,167.85c21.63-.05,43.26-.11,64.9-.16v70.84c-2.2-6.77-3.04-13.89-5.93-20.51-7.59-17.35-19.11-31.06-35.6-40.64-7.39-4.29-15.4-6.8-23.36-9.53Z"/>
    <path class="cls-2" d="m166.57,30.01c-3.75-10.83-10.49-19.15-20.37-25.1-3.92-2.36-8.54-2.57-12.41-4.83,10.98,0,21.97,0,32.95,0-.05,9.98-.11,19.95-.16,29.93Z"/>
    <path class="cls-2" d="m117.81.08c-9.3,2.79-17.64,6.99-24.19,14.54-4.03,4.64-6.15,10.14-8.73,15.48,0-10.01-.02-20.01-.03-30.02h32.95Z"/>
    <path class="cls-2" d="m221.65,495.1c6.99,1.61,13.98,3.21,20.97,4.82h-17.97c.95-2.81-2.85-2.68-3-4.82Z"/>
    <path class="cls-2" d="m.83,498.94c.13.31.18.64.17.98h-1l.83-.98Z"/>
    <path class="cls-2" d="m167.74,499.92c0-.33.05-.66.16-.97.28.32.56.65.83.97h-1Z"/>
    <path class="cls-3" d="m56.91,329.35c-1-.35-1.99-.7-2.99-1.05-.44-.79-1.18-.96-2-.95-21.53-9.56-36.77-25.29-45.96-46.93-1.24-2.72-.53-6.39-3.92-8.07.5-6.26-1.47-12.37-1.14-18.66.16-3.18,1.02-4.36,4.28-4.26,6.26.19,12.53.04,18.79.03,2.36,0,4.72,0,7.08,0,7.59,0,15.18,0,22.77,0,9.97-.05,19.93-.09,29.9-.14,0,0,.35.17.35.17-.01,27.6-.02,55.2-.03,82.81-.11.34-.22.69-.33,1.03-.28-.01-.55-.01-.83,0-8.05.37-15.9-1.58-23.88-2.07-.13-1.25-.78-1.94-2.08-1.92Z"/>
    <path class="cls-5" d="m83.7,189.64c.02-7.31.04-14.63.05-21.94.08-.34.16-.69.23-1.03,27.59.02,55.18.05,82.77.08l-.08-.08c.07,2.67.14,5.34.21,8.01-.04,24.89-.08,49.78-.12,74.67,0,0-.04.33-.04.33-27.56-.06-55.11-.11-82.67-.17,0,0-.35-.17-.35-.17,0-9.92,0-19.84,0-29.76,1.32-7.7,2-15.37-.68-22.95,1.66-2.19.58-4.64.67-6.98Zm15.16,53.31c.03-3.31-1.08-5.39-4.19-5.34-2.82.05-4.62,1.84-4.72,4.63-.11,3.07,1.88,4.2,4.79,4.29,2.92.1,4.42-.97,4.12-3.59Zm20.89-50.16c.49-3.46-1.72-4.92-4.27-4.81-2.36.09-4.65,1.45-4.65,4.6,0,3.08,2.05,4.63,4.56,4.54,2.28-.08,5.18-.83,4.36-4.32Zm21.07-16.62c-.19-2.92-1.65-4.53-4.66-4.47-2.74.05-4.25,1.49-4.34,4.23-.1,2.95,1.32,4.64,4.35,4.71,3.01.08,4.47-1.54,4.66-4.47Zm-25.38,28.39c-2.99.16-4.64,1.57-4.6,4.6.05,3.01,1.69,4.48,4.66,4.41,2.74-.07,4.2-1.54,4.29-4.28.09-3-1.48-4.49-4.35-4.72Zm21.2,9.1c2.41-.32,4.2-1.56,4.13-4.65-.06-2.73-1.45-4.27-4.19-4.39-2.95-.13-4.66,1.27-4.76,4.29-.1,3.01,1.49,4.48,4.83,4.74Zm-21.33-42.03c-2.93.19-4.53,1.65-4.47,4.66.05,2.74,1.49,4.24,4.23,4.34,2.95.1,4.64-1.32,4.72-4.34.08-3.01-1.54-4.47-4.48-4.66Zm20.53,16.17c-2.06.71-3.98,1.36-4.15,4.46-.18,3.35,1.56,4.72,4.22,4.75,2.61.03,4.7-1.52,4.81-4.5.11-3.13-2.27-3.99-4.88-4.71Zm-37.03,37.86c.33-2.91-.9-4.21-3.92-4.14-2.86.07-4.93,1.03-4.95,4.1-.02,2.79,1.73,4.85,4.48,4.72,2.44-.12,4.84-1.34,4.39-4.69Zm20.93-.49c-.4-1.19-.27-3.69-3.65-3.65-3.07.04-5.04,1.01-5.27,4.37-.23,3.37,2.23,4.44,4.62,4.42,2.16-.01,4.56-1.08,4.29-5.15Zm12.08.54c-.37,3.41,2.06,4.58,4.49,4.64,2.74.06,4.47-2.02,4.38-4.82-.09-3.08-2.22-3.95-5.06-4.01-3.11-.06-4.13,1.43-3.82,4.19Zm25.1,20.73c3.16.7,4.37-1.73,4.62-4.17.29-2.8-1.77-4.54-4.52-4.66-3.06-.13-4.2,1.85-4.29,4.75-.09,2.85.86,4.45,4.19,4.08Zm-37.06-4.64c-.24-2.6-1.55-4.5-4.35-4.17-2.44.29-4.94,1.14-4.68,4.57.21,2.78,1.62,4.23,4.4,4.27,3.07.04,4.49-1.62,4.63-4.68Zm20.96.57c-.53-3.02-2.16-4.91-5.24-4.77-2.48.11-3.76,1.77-3.77,4.28,0,3,1.49,4.57,4.51,4.6,2.78.02,4.18-1.48,4.5-4.11Zm11.9-67.39c-.01,3.4.97,5.55,4.13,5.59,2.61.03,4.62-1.58,4.69-4.09.07-2.47-.94-4.98-4.31-4.79-2.43.14-4.7.58-4.51,3.29Zm-53.81.66c-.33-2.35-1.67-4.08-4.74-3.96-2.75.11-4.41,1.55-4.23,4.31.18,2.78,1.95,4.53,4.78,4.58,2.81.05,4.03-1.77,4.19-4.93Zm53.88,50.02c-.36,3.44,2.06,4.71,4.52,4.65,2.36-.05,4.25-2.08,4.33-4.61.1-3.11-2.03-4.1-4.93-4.18-3.08-.08-4.26,1.29-3.93,4.14Zm9.01-16.57c-.9-2.08-1.18-4.59-4.36-4.51-3,.08-4.64,1.46-4.65,4.49,0,3.02,1.62,4.42,4.62,4.51,3.18.1,3.48-2.4,4.38-4.49Zm-62.91-.38c-.32-2.8-1.91-4.21-4.91-4.12-3.11.09-3.96,2.54-3.89,4.69.07,2.2,1.17,4.48,4.31,4.3,3.06-.18,4.41-1.78,4.49-4.87Zm53.94-15.84c-.67,3.36,1.97,4.1,4.11,4.12,2.53.03,4.77-1.46,4.75-4.47-.03-3.04-2.61-4.48-4.88-4.55-2.52-.08-4.61,1.66-3.97,4.89Zm-54.04-.29c.53-3.22-1.7-4.68-3.9-4.6-2.31.08-4.85,1.46-4.96,4.48-.1,3.05,2.22,4.56,4.69,4.56,2.39,0,5.01-1.05,4.16-4.43Z"/>
    <path class="cls-6" d="m83.03,196.62c2.68,7.58,2,15.25.68,22.95-3.33,8.99-8.02,16.93-16,22.78-4.32,3.17-9.23,4.81-13.89,7.12-7.59,0-15.18,0-22.77,0-2.35-1.02-4.7-2.05-7.05-3.07-9.52-5.33-16.65-12.87-21.17-22.83.56-1.26-.35-1.98-1.03-2.78-.98-7.33-1.6-14.75-.33-22.02,1.61-9.22,7.08-16.46,13.55-22.97,1.13-.75,2.26-1.5,3.39-2.25.2-.06.34-.19.4-.39.81-.62,2.18-.35,2.59-1.61.21-.06.34-.19.41-.39.59-.68,1.95-.09,2.19-1.34l1.95-.28c1.01-.57,2.03-1.14,3.04-1.72,8.85-1.71,17.71-1.46,26.58-.21.46,1.1,1.3,1.26,2.33.93,9.97,4.52,17.51,11.65,22.85,21.16.23,2.48,2.52,4.29,2.28,6.94Zm-40.65-6.98c-10.91,0-17.91,7.1-18.55,17.35-.85,13.58,9.52,20.76,18.67,20.46,11.55-.38,18.88-7.65,19.3-19.23.34-9.54-7.41-19.64-19.42-18.58Z"/>
    <path class="cls-5" d="m83.71,333.34c.11-.34.22-.69.33-1.03,5.35-.62,10.51,1.26,15.82,1.17,12.61,3.33,24.72,7.74,35.19,15.84,10.92,8.44,19.19,18.84,25.09,31.4,3.7,7.87,5.41,16.15,7.5,24.41-.67,3.65-1.18,7.31-.87,11.04,0,0,.05.04.05.04-.35.03-.7.06-1.05.09-6.85.55-13.49-1.53-20.3-1.57-2.38-2.44-5.64-2.64-8.67-3.42-11.29-5.62-22.11-11.76-30.8-21.3-6.8-7.45-11.77-15.92-16.29-24.77.41-1.34-.27-2.13-1.38-2.69.69-1-.48-1.51-.61-2.3.41-1.34-.27-2.13-1.38-2.69,1.13-3.95-1.2-7.46-1.7-11.2-.54-4.03-.42-8.06-.92-12.06.14-.31.14-.63,0-.95Z"/>
    <path class="cls-5" d="m83.99,166.67c-.08.34-.16.69-.23,1.03-4.89-2.33-10.26-.27-15.37-1.81-3.05-.93-6.25-2.85-9.78-1.64-.56-1.11-1.35-1.79-2.69-1.38l-2.95-1.27c-.41-1.01-1.22-.89-2.04-.72-8.76-4.15-16.85-9.41-24.01-15.85-6.96-6.27-12.32-13.97-16.9-22.15-1.12-1.99-2.13-4.04-3.19-6.06.41-1.34-.27-2.13-1.38-2.69.69-1-.48-1.51-.61-2.3.41-1.34-.27-2.13-1.38-2.69,1.16-3.24-.91-5.97-1.48-8.92-1.11-5.71-1.06-11.45-.89-17.21,11.62.01,23.23.02,34.85.03.34,1.93.89,3.85.99,5.79.59,10.87,5.29,20,12.45,27.78,9.15,9.95,21.2,13.94,34.35,15.15.1,11.64.19,23.27.29,34.91Z"/>
    <path class="cls-2" d="m49.97,422.21c-2.51,1.94-5.41,3.13-8.31,4.31.71-3.59,4.41-5.51,8.31-4.31Z"/>
    <path class="cls-2" d="m2.04,272.36c3.39,1.68,2.68,5.35,3.92,8.07-3.46-1.65-2.75-5.31-3.92-8.07Z"/>
    <path class="cls-2" d="m136.79,411.29c3.03.78,6.3.98,8.67,3.42-3.27-.18-6.59-.22-8.67-3.42Z"/>
    <path class="cls-2" d="m83.03,196.62c.25-2.64-2.04-4.45-2.28-6.94.98-.01,1.96-.03,2.95-.04-.09,2.34.99,4.79-.67,6.98Z"/>
    <path class="cls-2" d="m24,246.39c2.35,1.03,4.7,2.05,7.05,3.07-2.36,0-4.72,0-7.08,0,.66-1.02.52-2.05.03-3.08Z"/>
    <path class="cls-2" d="m169.52,439.26c1.32,1.7,2.08,3.6,2.05,5.79-2.65-1.23-2.9-3.31-2.05-5.79Z"/>
    <path class="cls-2" d="m33.96,16.05c-.73,1.8-2.56,2.15-4,3-.31-3.19,1.84-3.09,4-3Z"/>
    <path class="cls-2" d="m30.07,435.11c-.73,1.85-2.75,1.99-4.07,3.06-.38-3.32,1.84-3.19,4.07-3.06Z"/>
    <path class="cls-2" d="m36.98,13.09c-.07,1.94-1.78,2.22-3.02,2.97-.22-2.23.77-3.24,3.02-2.97Z"/>
    <path class="cls-2" d="m54.96,420.21c-1.01.57-2.03,1.15-3.04,1.72.08-2.23.48-3.88,3.04-1.72Z"/>
    <path class="cls-2" d="m18.41,173.53c-1.13.75-2.26,1.5-3.39,2.25-.06-2.54.74-3.79,3.39-2.25Z"/>
    <path class="cls-2" d="m29,167.8c-1.01.57-2.03,1.14-3.04,1.72.08-2.22.48-3.89,3.04-1.72Z"/>
    <path class="cls-2" d="m35.35,430.8c-.63,1.49-2.37,1.41-3.36,2.39-.07-2.47.65-3.83,3.36-2.39Z"/>
    <path class="cls-2" d="m21.41,171.54c-.41,1.26-1.78.99-2.59,1.61-.37-.68-.71-1.44.1-1.98.87-.59,1.72-.12,2.5.37Z"/>
    <path class="cls-2" d="m24.01,169.8c-.24,1.25-1.61.66-2.19,1.34-.42-.72-.9-1.51.12-2.08.9-.5,1.55.03,2.07.74Z"/>
    <path class="cls-2" d="m41.34,426.81c-.39,1.37-1.77,1.19-2.69,1.72-.85-3.3,1.05-2.31,2.69-1.72Z"/>
    <path class="cls-2" d="m38.34,428.8c-.39,1.37-1.77,1.19-2.69,1.72-.85-3.3,1.05-2.31,2.69-1.72Z"/>
    <path class="cls-2" d="m57.91,168.52c-1.03.32-1.87.17-2.33-.93.19-.62.43-1.34,1.24-1.08.89.29.99,1.2,1.09,2.01Z"/>
    <path class="cls-2" d="m3.44,109.13c1.11.56,1.79,1.35,1.38,2.69-1.61-.3-1.95-1.27-1.38-2.69Z"/>
    <path class="cls-2" d="m172.53,447.25c.68.8,1.59,1.52,1.03,2.78-1.71-.42-2.01-1.37-1.03-2.78Z"/>
    <path class="cls-2" d="m5.44,114.12c1.11.56,1.79,1.35,1.38,2.69-1.61-.3-1.95-1.27-1.38-2.69Z"/>
    <path class="cls-2" d="m1.8,220.78c.68.8,1.59,1.52,1.03,2.78-1.71-.42-2.01-1.37-1.03-2.78Z"/>
    <path class="cls-2" d="m114.81,420.94c-1.4.33-2.17-.37-2.62-1.59,1.36-.27,2.39,0,2.62,1.59Z"/>
    <path class="cls-2" d="m88.31,362.54c1.11.56,1.79,1.35,1.38,2.69-1.61-.31-1.95-1.27-1.38-2.69Z"/>
    <path class="cls-2" d="m86.31,357.55c1.11.56,1.79,1.35,1.38,2.69-1.61-.31-1.95-1.27-1.38-2.69Z"/>
    <path class="cls-2" d="m56.91,329.35c1.31-.02,1.95.67,2.08,1.92-1.32.04-2.02-.6-2.08-1.92Z"/>
    <path class="cls-2" d="m162.64,469.04c-.92-.44-.89-1.22-.73-2.04,1.39.27,2.31.71.73,2.04Z"/>
    <path class="cls-2" d="m51.92,327.35c.82-.01,1.56.15,2,.95-1.54,1.52-1.79.33-2-.95Z"/>
    <path class="cls-2" d="m119.81,422.94c-1.4.33-2.17-.37-2.62-1.59,1.36-.27,2.39,0,2.62,1.59Z"/>
    <path class="cls-2" d="m216.66,493.1c.83-.18,1.67-.41,2.04.72-1.33,1.6-1.76.66-2.04-.72Z"/>
    <path class="cls-2" d="m165.5,474.61c-1.23-.45-1.92-1.22-1.59-2.62,1.6.23,1.86,1.26,1.59,2.62Z"/>
    <path class="cls-2" d="m50.92,160.87c.82-.17,1.63-.29,2.04.72-1.33,1.59-1.77.67-2.04-.72Z"/>
    <path class="cls-2" d="m55.91,162.87c1.35-.41,2.13.27,2.69,1.38-1.43.57-2.39.23-2.69-1.38Z"/>
    <path class="cls-2" d="m83.71,333.34c.14.32.14.63,0,.95-.27-.32-.55-.63-.82-.95.28-.01.55-.01.83,0Z"/>
    <path class="cls-2" d="m165.76,416.28c.35-.03.7-.06,1.05-.09-.03.32-.11.62-.24.91-.27-.27-.54-.55-.81-.82Z"/>
    <path class="cls-2" d="m250.6,486.12c-2.62-8.84-4.45-17.92-8.96-26.16-12.37-22.59-31.37-36.4-56.07-42.82-1.66-.43-3.68.93-5.02-1.02.59-1.07,1.65-.84,2.61-1.02,21.6-4.07,38.79-15.05,51.92-32.69,11.09-14.9,16.14-31.39,14.48-49.9l.17-.26c5.94.07,11.87.15,17.81.22-.26.2-.49.51-.78.58-12.46,3.17-15.77,10.39-16.7,19.91-.97,9.88,5.45,18,15.62,21.27-13.29,5.27-16.46,14.47-15.06,24.38,2.18,15.37,15.94,20.29,28.59,16.56,7-2.06,10.52-7.71,13.16-14.03,2.22,6.52,5.71,12.14,12.8,13.89,10.83,2.67,20.6,2.29,28.14-11.9.05.33.13.66.13.99-.02,3.65,1.2,8.05-.42,10.74-1.88,3.14-6.66.74-10.14,1.23-15.85,2.23-29.91,8.34-42.39,18.44-12.57,10.17-21.04,23.01-26.17,38.17-1.49,4.39-2.49,8.93-3.72,13.41Z"/>
    <path class="cls-7" d="m334.62,280.45c28.71-.41,52.22,24.11,51.73,51.71-16.09.05-32.19.04-48.28.2-2.83.03-3.68-.85-3.65-3.67.16-16.08.15-32.16.2-48.25Z"/>
    <path class="cls-4" d="m308.46,332.44c3.03,0,6.06,0,9.09,0,7.2,2.38,12.86,6.51,15.79,13.78,0,5.02,0,10.05,0,15.07-3,6.56-7.55,11.38-14.85,13.07-3.66,0-7.32,0-10.98,0-7.97-2.07-12.97-7.12-15.13-15.03,0-3.72,0-7.44,0-11.16,1.94-8.73,8.37-12.88,16.07-15.74Zm-1.02,22.04c.74,2.24,2.01,4.73,5.42,4.7,3.5-.03,5.63-2.08,5.56-5.58-.06-3.21-2.13-5.17-5.36-5.28-3.62-.13-5.37,1.96-5.62,6.16Z"/>
    <path class="cls-4" d="m357.44,374.71c0-4.98.17-9.97-.06-14.95-.14-2.94.96-3.6,3.7-3.56,9.64.15,19.28.13,28.92,0,2.54-.03,3.48.61,3.44,3.31-.15,10.13-.15,20.26,0,30.39.04,2.71-.93,3.33-3.45,3.3-9.64-.12-19.28-.14-28.92,0-2.76.04-3.83-.65-3.69-3.57.23-4.97.06-9.96.06-14.95Z"/>
    <path class="cls-7" d="m307.52,374.37c3.66,0,7.32,0,10.98,0,6.6,2.35,11.53,6.63,14.82,12.81,0,5.32,0,10.64,0,15.96-7.54,14.19-17.31,14.57-28.14,11.9-7.09-1.75-10.58-7.37-12.8-13.89,0-3.99,0-7.99,0-11.98,2.28-7.76,8.02-11.99,15.14-14.81Zm5.42,15.86c-4.04-.72-5.08,1.95-5.39,5.15-.38,3.9,2.67,5.53,5.46,5.53s5.83-1.63,5.46-5.53c-.3-3.23-1.42-5.81-5.53-5.15Z"/>
    <path class="cls-2" d="m308.46,332.44c-7.7,2.85-14.13,7.01-16.07,15.74-3.06-7.94-8.32-13.54-16.79-15.71,1.65-.11,3.3-.22,4.95-.33,9.3.1,18.6.2,27.9.3Z"/>
    <path class="cls-2" d="m333.31,387.18c-3.28-6.18-8.22-10.46-14.82-12.81,7.3-1.69,11.84-6.51,14.85-13.07,0,8.63-.02,17.26-.03,25.88Z"/>
    <path class="cls-2" d="m333.34,346.22c-2.92-7.27-8.59-11.4-15.79-13.78.82-.04,1.64-.12,2.47-.13q13.92-.14,13.32,13.91Z"/>
    <path class="cls-2" d="m166.77,249.34c.04-24.89.08-49.78.12-74.67.81,4.05,1.54,8.12,2.46,12.15,4.58,20.08,15.88,35.86,32.19,47.89,14.14,10.43,30.39,15.47,48.06,15.62,3.8.42,7.49-.31,11.25-.73,24.93-2.82,44.05-15.2,58.65-35.11,7.21-9.83,11.06-21.11,13.81-32.83.05,21.59.08,43.18.21,64.77.01,2.32-.57,3.07-3.02,3.13-25.15.59-45.47,11.44-61.57,30.18-9.38,10.93-15.15,23.86-17.33,38.23-.11.7-.29,1.26-.99,1.53-.32-.53-.84-1.02-.94-1.59-3.64-20.89-13.99-37.65-30.64-50.77-15.38-12.12-32.79-17.88-52.26-17.81Z"/>
    <path class="cls-7" d="m166.77,249.34c19.47-.08,36.88,5.68,52.26,17.81,16.65,13.12,27,29.88,30.64,50.77.1.57.62,1.06.94,1.59-.42,4.24.94,8.6-.88,12.75,0,0-.17.26-.17.26-5.07-.86-9.94,1.43-14.98.93-2.33-.04-4.65-.12-6.98-.13-20.29-.06-40.57-.12-60.86-.17,0-27.82,0-55.65,0-83.47l.04-.33Z"/>
    <path class="cls-4" d="m333.58,155.7c.58,3.59,1.22,7.17.89,10.83-.32.1-.64.2-.96.31-13.61-.08-27.23-.17-40.84-.25-1.32-25.36-19.29-41.53-43.05-41.8,0-13.99,0-27.97,0-41.96,0,0-.06.06-.06.06,4.05-.09,8.09-.04,12.07.9,37.13,4.32,67.63,34.79,71.96,71.91Z"/>
    <path class="cls-5" d="m292.66,166.58c13.61.08,27.23.17,40.84.25-.07,4.94-.13,9.88-.19,14.83-2.75,11.72-6.6,23-13.81,32.83-14.6,19.91-33.72,32.29-58.65,35.11-3.76.43-7.45,1.15-11.25.73-.01-13.92-.02-27.85-.04-41.77,25.02-.04,42.51-18.43,42.88-41.78,0,0,.21-.2.21-.2Z"/>
    <path class="cls-3" d="m275.61,332.47c8.47,2.17,13.73,7.77,16.79,15.71,0,3.72,0,7.44,0,11.15-2.98,6.96-6.96,12.92-14.92,14.9-3.93,0-7.87,0-11.8,0-10.17-3.27-16.59-11.39-15.62-21.27.93-9.52,4.25-16.74,16.7-19.91.29-.07.52-.38.78-.58,2.69,0,5.38,0,8.08,0Zm.93,21.19c.6-4.14-2.15-5.11-5.3-5.35-3.87-.31-5.44,2.75-5.42,5.56.02,2.54,1.48,5.54,5.16,5.35,3.47-.18,6.16-1.29,5.56-5.56Z"/>
    <path class="cls-7" d="m249.61,82.82c0,13.99,0,27.97,0,41.96h0c-24.03,1.4-40.21,18.59-40.94,41.99-13.99-.04-27.99-.08-41.98-.11l.08.08c.05-2.68.09-5.36.14-8.04.22-.23.63-.44.64-.69.92-12.97,5.06-24.85,12.04-35.78,9.33-14.61,21.81-25.47,37.77-32.48,8.13-3.57,16.73-4.92,25.26-6.72,2.33-.08,4.66-.15,6.99-.23Z"/>
    <path class="cls-3" d="m242.61,83.05c-8.53,1.8-17.13,3.15-25.26,6.72-15.96,7-28.44,17.86-37.77,32.48-6.98,10.93-11.12,22.81-12.04,35.78-.02.24-.42.46-.64.69-.04-25.3-.08-50.59-.12-75.89l-.04.12c25.29.04,50.58.07,75.87.11Z"/>
    <path class="cls-2" d="m137.78,82.72c14.29-4.9,23.88-14.49,28.79-28.76.06,9.66.11,19.32.17,28.99,0,0,.04-.12.04-.12-9.67-.03-19.33-.07-29-.1Z"/>
    <path class="cls-2" d="m333.58,155.7c-4.34-37.13-34.84-67.59-71.96-71.91,7.77-1.97,15.64-3.45,23.07-6.81,12.59-5.7,23.32-13.61,31.79-24.51,9.26-11.92,14.86-25.44,17.17-40.33,2.11,9.32,4.32,18.65,8.97,27.1,13.43,24.42,33.67,39.38,61.43,43.77.45.07.84.49,1.25.74-15.54,2.55-29.54,8.41-41.83,18.49-13.57,11.13-22.37,25.16-27.08,41.9-1.07,3.82-1.88,7.72-2.81,11.58Z"/>
    <path class="cls-7" d="m387.04,453.98c3,.19,4.47,1.78,4.33,4.79-.13,2.74-1.54,4.21-4.36,4.24-3.05.03-4.6-1.4-4.62-4.49-.02-3.13,1.68-4.44,4.65-4.54Z"/>
    <path class="cls-7" d="m365.5,463.07c-2.8-.33-4.27-1.92-4.06-4.93.21-3.11,2.07-4.31,4.99-4.09,2.8.21,4.04,1.85,3.99,4.6-.06,3.14-1.85,4.34-4.92,4.42Z"/>
    <path class="cls-7" d="m365.78,495.98c-3-.19-4.48-1.77-4.34-4.79.13-2.74,1.53-4.21,4.36-4.25,3.05-.04,4.6,1.4,4.62,4.49.02,3.13-1.67,4.44-4.64,4.54Z"/>
    <path class="cls-7" d="m349.52,424.53c-.1,3.81-1.38,5.75-4.47,5.49-2.97-.25-4.75-2.16-4.52-5.18.23-3.09,2.47-3.73,5.26-3.79,3.29-.07,3.94,1.67,3.73,3.48Z"/>
    <path class="cls-7" d="m370.29,474.65c.78,3.7-1.71,5.11-4.09,5.04-2.44-.07-4.91-1.49-4.79-4.89.11-3.08,2.34-4.54,4.62-4.34,1.97.18,5.59.45,4.25,4.19Z"/>
    <path class="cls-7" d="m386.97,470.36c2.3.49,4.34,1.48,4.42,4.52.09,3.41-2.47,4.73-4.87,4.81-2.48.09-4.18-1.58-4.26-4.83-.09-3.62,2.31-3.84,4.71-4.5Z"/>
    <path class="cls-7" d="m391.44,491.68c-.24,2.93-1.83,4.42-4.84,4.24-2.73-.16-4.2-1.56-4.21-4.4,0-3.07,1.46-4.58,4.55-4.57,3.14,0,4.4,1.74,4.5,4.73Z"/>
    <path class="cls-7" d="m386.16,446.03c-2.99.4-3.75-1.21-3.83-4.06-.1-3.55,2.17-4.77,4.8-4.74,2.64.03,4.3,2.14,4.2,4.88-.12,3.07-2.17,4.13-5.16,3.91Z"/>
    <path class="cls-7" d="m403.4,425c-.42-3.22,1.27-3.89,4.08-3.97,3.57-.1,4.74,2.21,4.69,4.84-.05,2.63-2.17,4.3-4.92,4.15-3.04-.16-4.18-2.16-3.85-5.02Z"/>
    <path class="cls-7" d="m382.41,424.51c.16-2.07,1.74-3.54,4.74-3.39,3.05.15,4.31,1.87,4.24,4.83-.08,3.41-2.76,3.91-5.08,4.02-2.73.13-4.02-1.8-3.9-5.46Z"/>
    <path class="cls-7" d="m407.13,446.03c-2.99.4-3.75-1.21-3.83-4.06-.1-3.55,2.17-4.77,4.8-4.74,2.64.03,4.3,2.14,4.2,4.88-.12,3.07-2.17,4.13-5.16,3.91Z"/>
    <path class="cls-7" d="m349.42,442.06c.38,2.9-.87,4.11-3.9,4.03-2.84-.08-4.92-.92-5.01-4.01-.08-2.75,1.58-4.85,4.23-4.85,2.63,0,5.15,1.2,4.67,4.83Z"/>
    <path class="cls-7" d="m370.48,426.01c-.33,2.53-1.67,4.38-4.44,3.97-2.35-.35-4.88-1.06-4.64-4.51.21-3.07,1.74-4.46,4.73-4.37,3.1.09,4.3,1.9,4.35,4.9Z"/>
    <path class="cls-7" d="m370.54,440.41c-.28,3.99-.98,5.98-4.45,5.69-2.71-.23-4.53-1.19-4.6-4.01-.06-2.79,1.63-4.88,4.31-4.86,2.36.02,4.96,1.02,4.74,3.18Z"/>
    <path class="cls-7" d="m407.9,495.95c-2.57-.22-4.79-.62-4.59-4.16.15-2.69,1.05-4.62,3.83-4.77,3.02-.16,5.18,1.63,5.04,4.6-.1,2.11-1.07,4.63-4.28,4.33Z"/>
    <path class="cls-7" d="m406.56,454.07c4.78-.2,5.7,2.41,5.59,4.73-.1,2.05-1.06,4.45-4.27,4.26-3.04-.19-4.49-1.53-4.53-4.57-.04-3.17,1.86-4.22,3.21-4.41Z"/>
    <path class="cls-7" d="m349.37,475.07c.73,3.28-1.84,4.69-3.78,4.59-2.38-.12-5.22-1.47-5.07-4.83.12-2.93,2.36-4.35,4.84-4.27,2.44.09,4.97,1.11,4.01,4.5Z"/>
    <path class="cls-7" d="m349.5,458.7c-.18,2.76-1.61,4.21-4.63,4.34-3.17.14-4.15-2.25-4.21-4.31-.07-2.31.85-4.83,4.26-4.74,3.08.09,4.46,1.6,4.58,4.71Z"/>
    <path class="cls-7" d="m408.28,470.55c1.58.65,4.05,1.37,4.05,4.47,0,3.13-2.69,4.48-4.8,4.65-2.3.18-4.27-1.36-4.29-4.67-.02-3.39,1.76-4.19,5.05-4.45Z"/>
    <path class="cls-7" d="m349.45,492.39c-.17,2.19-1.73,3.55-4.7,3.56-3.36,0-4.2-2.53-4.1-4.85.11-2.61,2.21-4.24,4.97-4.09,2.73.15,3.94,1.93,3.83,5.38Z"/>
    <path class="cls-6" d="m137.78,82.72c9.67.03,19.33.07,29,.1.04,25.3.08,50.59.12,75.89-.05,2.68-.09,5.36-.14,8.04-27.59-.03-55.18-.05-82.77-.08-.1-11.64-.19-23.27-.29-34.91.06-16.24.12-32.48.18-48.73.33-.11.67-.21,1-.32,9.64,0,19.29,0,28.93,0,7.99,0,15.98,0,23.97,0Zm5.99,42.93c0-4.98-.15-9.96.06-14.93.12-2.88-.44-4.07-3.73-3.98-9.46.24-18.92.19-28.38.02-2.88-.05-4.06.45-3.98,3.73.24,9.78.26,19.58,0,29.36-.1,3.51,1.23,4.01,4.26,3.95,9.13-.17,18.27-.3,27.38.05,4.01.16,4.69-1.29,4.46-4.77-.28-4.46-.07-8.95-.07-13.43Z"/>
    <path class="cls-4" d="m83.88,83.04c-.06,16.24-.12,32.48-.18,48.73-13.15-1.21-25.2-5.2-34.35-15.15-7.16-7.78-11.86-16.91-12.45-27.78-.11-1.94-.65-3.86-.99-5.79,15.99,0,31.98,0,47.97,0Z"/>
    <path class="cls-2" d="m113.82,82.72c-9.64,0-19.29,0-28.93,0,0-9.62,0-19.24,0-28.86,3.55,10.06,9.79,18.01,18.51,24.14,3.21,2.26,7.09,2.82,10.41,4.71Z"/>
    <path class="cls-4" d="m125.79,61.94c-11.3,0-18.95-7.65-18.96-18.94,0-11.11,7.87-18.97,18.98-18.97,11.1,0,18.96,7.88,18.96,19,0,11.28-7.67,18.92-18.98,18.92Z"/>
    <path class="cls-7" d="m234.58,333.44c5.04.5,9.92-1.79,14.98-.93,1.67,18.52-3.39,35.01-14.48,49.91-13.13,17.64-30.31,28.61-51.92,32.69-.96.18-2.02-.05-2.61,1.02-4.6.01-9.2.02-13.79.03-.31-3.73.2-7.39.87-11.04,3.2-24.52,15.41-43.49,35.26-57.96,9.59-6.99,20.62-10.31,31.68-13.71Z"/>
    <path class="cls-6" d="m166.73,249.67c0,27.82,0,55.65,0,83.47-2.31.06-4.62.15-6.93.16-19.99.07-39.97.12-59.96.17-5.31.09-10.47-1.78-15.82-1.17.01-27.6.02-55.2.03-82.81,27.56.06,55.11.11,82.67.17Z"/>
    <path class="cls-2" d="m53.82,249.46c4.66-2.31,9.58-3.95,13.89-7.12,7.98-5.86,12.67-13.79,16-22.78,0,9.92,0,19.84,0,29.76-9.97.04-19.93.09-29.9.14Z"/>
    <path class="cls-6" d="m166.68,166.67c13.99.04,27.99.08,41.98.11,0,0,0-.11,0-.11.76,23.25,16.7,40.43,40.98,41.96l-.07-.07c.01,13.92.02,27.85.04,41.77-17.67-.15-33.92-5.19-48.06-15.62-16.31-12.03-27.61-27.81-32.19-47.89-.92-4.03-1.64-8.1-2.46-12.15-.07-2.67-.14-5.34-.21-8.01Z"/>
    <path class="cls-2" d="m98.86,242.95c.3,2.62-1.2,3.68-4.12,3.59-2.91-.1-4.91-1.22-4.79-4.29.1-2.79,1.9-4.58,4.72-4.63,3.11-.05,4.23,2.02,4.19,5.34Z"/>
    <path class="cls-2" d="m119.76,192.79c.82,3.49-2.08,4.24-4.36,4.32-2.51.09-4.55-1.46-4.56-4.54,0-3.14,2.28-4.5,4.65-4.6,2.55-.1,4.75,1.35,4.27,4.81Z"/>
    <path class="cls-2" d="m140.83,176.17c-.19,2.93-1.65,4.55-4.66,4.47-3.02-.08-4.45-1.76-4.35-4.71.1-2.74,1.6-4.17,4.34-4.23,3.02-.06,4.47,1.54,4.66,4.47Z"/>
    <path class="cls-2" d="m115.44,204.56c2.87.23,4.45,1.72,4.35,4.72-.09,2.74-1.55,4.22-4.29,4.28-2.97.07-4.61-1.4-4.66-4.41-.05-3.02,1.61-4.44,4.6-4.6Z"/>
    <path class="cls-2" d="m136.64,213.66c-3.33-.25-4.93-1.73-4.83-4.74.1-3.03,1.82-4.42,4.76-4.29,2.75.12,4.13,1.65,4.19,4.39.07,3.08-1.72,4.33-4.13,4.65Z"/>
    <path class="cls-2" d="m115.32,171.63c2.93.19,4.55,1.65,4.48,4.66-.08,3.02-1.76,4.45-4.72,4.34-2.74-.1-4.18-1.6-4.23-4.34-.06-3.01,1.55-4.47,4.47-4.66Z"/>
    <path class="cls-2" d="m135.84,187.81c2.61.72,5,1.58,4.88,4.71-.11,2.98-2.2,4.53-4.81,4.5-2.66-.03-4.41-1.4-4.22-4.75.17-3.1,2.09-3.74,4.15-4.46Z"/>
    <path class="cls-2" d="m98.81,225.67c.45,3.35-1.94,4.57-4.39,4.69-2.75.13-4.5-1.93-4.48-4.72.02-3.08,2.09-4.03,4.95-4.1,3.02-.08,4.25,1.23,3.92,4.14Z"/>
    <path class="cls-2" d="m119.74,225.18c.27,4.06-2.14,5.13-4.29,5.15-2.39.01-4.85-1.06-4.62-4.42.23-3.36,2.2-4.33,5.27-4.37,3.38-.04,3.25,2.45,3.65,3.65Z"/>
    <path class="cls-2" d="m131.82,225.72c-.31-2.76.71-4.25,3.82-4.19,2.84.06,4.96.93,5.06,4.01.08,2.8-1.64,4.89-4.38,4.82-2.44-.06-4.86-1.23-4.49-4.64Z"/>
    <path class="cls-2" d="m156.92,246.45c-3.33.37-4.28-1.23-4.19-4.08.09-2.9,1.24-4.88,4.29-4.75,2.75.12,4.81,1.86,4.52,4.66-.25,2.44-1.46,4.87-4.62,4.17Z"/>
    <path class="cls-2" d="m119.86,241.81c-.14,3.06-1.56,4.72-4.63,4.68-2.78-.04-4.19-1.5-4.4-4.27-.26-3.43,2.24-4.28,4.68-4.57,2.8-.33,4.12,1.57,4.35,4.17Z"/>
    <path class="cls-2" d="m140.82,242.39c-.32,2.63-1.72,4.13-4.5,4.11-3.02-.02-4.52-1.6-4.51-4.6,0-2.51,1.28-4.17,3.77-4.28,3.09-.13,4.71,1.75,5.24,4.77Z"/>
    <path class="cls-2" d="m152.72,175c-.19-2.71,2.08-3.15,4.51-3.29,3.36-.19,4.37,2.32,4.31,4.79-.07,2.51-2.07,4.12-4.69,4.09-3.16-.04-4.14-2.19-4.13-5.59Z"/>
    <path class="cls-2" d="m98.91,175.65c-.16,3.16-1.38,4.98-4.19,4.93-2.83-.05-4.6-1.8-4.78-4.58-.18-2.76,1.48-4.2,4.23-4.31,3.07-.12,4.41,1.6,4.74,3.96Z"/>
    <path class="cls-2" d="m152.78,225.67c-.33-2.84.85-4.22,3.93-4.14,2.9.08,5.03,1.07,4.93,4.18-.08,2.53-1.97,4.56-4.33,4.61-2.47.05-4.89-1.21-4.52-4.65Z"/>
    <path class="cls-2" d="m161.79,209.1c-.91,2.09-1.2,4.59-4.38,4.49-3-.09-4.63-1.49-4.62-4.51,0-3.03,1.65-4.41,4.65-4.49,3.18-.08,3.46,2.43,4.36,4.51Z"/>
    <path class="cls-2" d="m98.88,208.73c-.08,3.09-1.43,4.7-4.49,4.87-3.14.18-4.24-2.11-4.31-4.3-.07-2.15.78-4.6,3.89-4.69,3-.09,4.59,1.32,4.91,4.12Z"/>
    <path class="cls-2" d="m152.82,192.89c-.64-3.23,1.45-4.97,3.97-4.89,2.27.07,4.86,1.5,4.88,4.55.03,3.01-2.22,4.5-4.75,4.47-2.14-.03-4.77-.77-4.11-4.12Z"/>
    <path class="cls-2" d="m98.78,192.6c.84,3.38-1.77,4.43-4.16,4.43-2.47,0-4.79-1.51-4.69-4.56.1-3.02,2.65-4.4,4.96-4.48,2.19-.07,4.42,1.38,3.9,4.6Z"/>
    <path class="cls-1" d="m42.38,189.64c12.01-1.06,19.76,9.04,19.42,18.58-.42,11.58-7.74,18.85-19.3,19.23-9.15.3-19.52-6.88-18.67-20.46.64-10.25,7.64-17.35,18.55-17.35Z"/>
    <path class="cls-2" d="m99.85,333.47c19.99-.05,39.97-.1,59.96-.17,2.31,0,4.62-.1,6.93-.16,20.29.06,40.57.11,60.86.17,2.33,0,4.65.08,6.98.13-11.07,3.4-22.1,6.72-31.68,13.71-19.85,14.47-32.06,33.45-35.26,57.96-2.09-8.26-3.81-16.54-7.5-24.41-5.9-12.56-14.17-22.96-25.09-31.4-10.47-8.1-22.58-12.51-35.19-15.84Z"/>
    <path class="cls-6" d="m265.67,374.24c3.93,0,7.87,0,11.8,0,7.14,2.82,11.92,7.97,14.9,14.93,0,3.99,0,7.99,0,11.98-2.64,6.32-6.16,11.97-13.16,14.03-12.66,3.72-26.42-1.19-28.59-16.56-1.41-9.91,1.76-19.11,15.06-24.38Zm5.78,15.91c-3.68-.24-5.46,2.35-5.55,5.37-.1,3.2,2.46,5.57,5.63,5.31,2.72-.22,5.15-1.89,5.09-5.51-.06-3.48-1.52-5.21-5.16-5.17Z"/>
    <path class="cls-2" d="m292.37,389.17c-2.98-6.96-7.76-12.12-14.9-14.93,7.96-1.98,11.94-7.94,14.92-14.9,2.15,7.91,7.16,12.96,15.13,15.03-7.13,2.81-12.86,7.05-15.14,14.81Z"/>
    <path class="cls-2" d="m307.44,354.49c.25-4.2,2-6.29,5.62-6.16,3.23.12,5.3,2.07,5.36,5.28.07,3.49-2.06,5.55-5.56,5.58-3.41.03-4.69-2.46-5.42-4.7Z"/>
    <path class="cls-4" d="m312.94,390.23c4.12-.66,5.23,1.92,5.53,5.15.37,3.9-2.68,5.53-5.46,5.53s-5.84-1.63-5.46-5.53c.31-3.2,1.35-5.87,5.39-5.15Z"/>
    <path class="cls-6" d="m249.61,124.78c23.76.27,41.73,16.44,43.05,41.8,0,0-.21.2-.21.2-14.28,0-28.56,0-42.83,0,0-13.99,0-27.99-.01-41.98h0Z"/>
    <path class="cls-7" d="m249.62,166.78c14.28,0,28.56,0,42.83,0-.37,23.34-17.86,41.74-42.88,41.78l.07.07c-.01-13.99-.02-27.98-.03-41.96v.11Z"/>
    <path class="cls-4" d="m276.54,353.67c.6,4.26-2.09,5.38-5.56,5.56-3.68.19-5.14-2.81-5.16-5.35-.02-2.82,1.55-5.87,5.42-5.56,3.15.25,5.9,1.21,5.3,5.35Z"/>
    <path class="cls-2" d="m249.6,124.79c0,13.99.01,27.99.01,41.98,0,0,0-.11,0-.11-13.65,0-27.3,0-40.94,0,0,0,0,.11,0,.11.73-23.4,16.91-40.59,40.94-41.98Z"/>
    <path class="cls-3" d="m143.77,125.65c0,4.48-.22,8.97.07,13.43.22,3.49-.46,4.93-4.46,4.77-9.12-.35-18.26-.22-27.38-.05-3.02.06-4.35-.45-4.26-3.95.26-9.78.25-19.57,0-29.36-.08-3.28,1.1-3.78,3.98-3.73,9.46.16,18.93.22,28.38-.02,3.28-.09,3.85,1.1,3.73,3.98-.21,4.97-.06,9.95-.06,14.93Z"/>
    <path class="cls-4" d="m208.67,166.67c13.65,0,27.3,0,40.94,0,.01,13.99.02,27.98.03,41.96-24.28-1.53-40.22-18.71-40.98-41.96Z"/>
    <path class="cls-3" d="m271.45,390.15c3.64-.03,5.1,1.69,5.16,5.17.06,3.63-2.36,5.3-5.09,5.51-3.17.25-5.73-2.11-5.63-5.31.09-3.02,1.87-5.61,5.55-5.37Z"/>
  </g>
</svg>