<svg xmlns="http://www.w3.org/2000/svg" viewBox="0 0 1194.85 1169.42"><defs><style>.cls-1{fill:#e02965;}.cls-2{fill:#f8cd42;}.cls-3{fill:#bde2f7;}.cls-4{fill:#9ac8ef;}.cls-5{fill:#c11025;}.cls-6{fill:#a7cff1;}.cls-7{fill:#bed6ec;}.cls-8{fill:#bcc0c5;}.cls-9{fill:#3a75a9;}.cls-10{fill:#425b73;}.cls-11{fill:#42607e;}.cls-12{fill:#365676;}</style></defs><g id="Calque_2" data-name="Calque 2"><g id="Calque_1-2" data-name="Calque 1"><path class="cls-1" d="M1078.53,348.2c2,.62,3.11,2.43,4.5,3.81q53.84,53.76,107.65,107.57c1.26,1.25,2.17,3,4.17,3.36V232c-2.56-2.16-5.66-1.62-8.6-1.62-29.08,0-58.15-.1-87.23.1-13.37-.18-26.75-.16-40.12,0-28.25-.1-56.5-.07-84.76-.06a42.4,42.4,0,0,0-8.43.37,4.66,4.66,0,0,0-1.52.65c-1.68,2.76.9,3.9,2.23,5.26,8.75,8.91,17.63,17.68,26.44,26.53,27.74,27.81,55.65,55.45,83.27,83.39C1076.82,347.26,1077.43,348.09,1078.53,348.2Z"/><path class="cls-2" d="M232.88,172.73c0-18.16,0-36.33,0-54.49-.13-56.64-37.21-103-92.47-115.56-3.72-.84-7.55-1.2-11.32-1.79-1.92-1-4.2.37-6.09-.89H0Q0,56.22,0,112.43c0,60.27,39.66,107.65,98.9,118.19,1.63.29,3.3.35,5,.52,1.67,1,3.66,1.3,5.24,2.52a134,134,0,0,1,17.47,0c1.88-.29,3.85-.26,5.43-1.58l45.81-.26a.78.78,0,0,0-.06-1.27c-8.32-2.21-16.78-4.11-24.3-8.53-15-8.82-25.82-21.11-31.53-37.72-.62-1.83-.35-4.62-3.54-4.57-4.32,1.49-8.58.43-12.83-.31-33-5.69-56.12-33.13-56.14-66.58q0-30,0-59.91c0-6.26.24-6.5,6.41-6.51,18.14,0,36.28-.22,54.42,0,17.63.26,34.3,3.75,48.42,15.46,15.84,13.13,23.59,30.1,24.85,50.35a41,41,0,0,0,.34,6c.55,2.29,2.5,2.9,4.36,3.66,21.22,8.68,35.12,23.94,41.47,46.05C230.22,169.79,229.88,172.45,232.88,172.73Z"/><path class="cls-3" d="M1194.85,1q-67.75,0-135.52.06c-2.08,0-5.45-1.55-5.45,2.83-2.78,4.8-.52,9.76-.06,14.49a123.32,123.32,0,0,0,6.83,29.89c4,9.95,8.25,19.84,14.27,28.82a146.18,146.18,0,0,0,43.84,43.81c9,5.95,18.75,10.29,28.72,14.24a153.35,153.35,0,0,0,44.25,8.16,5,5,0,0,0,3.12-1.32Z"/><path class="cls-4" d="M123,0c1.83,1.67,4,.87,6.09.89C129.05.6,129,.3,129,0Z"/><path class="cls-2" d="M963.71,232.78a.75.75,0,0,0,0-.57c-2.39-2.58-5.56-1.85-8.46-1.85-29.65,0-59.3-.13-88.94.13a187.82,187.82,0,0,1-36.73,0c-30.09-.19-60.19-.1-90.28-.16-5.39,0-5.76-.46-5.79-6.19-.15-28.09.24-56.19-.22-84.29a26.14,26.14,0,0,0-.32-5.45c-.73-2.42-2.84-2.45-4.8-2.77-6.73-1.11-13.58-1.19-20.28-2.52-23.31-4.61-44-14.35-61.95-30.22-23.74-21-38.22-46.93-43.19-78.18a137.57,137.57,0,0,1-1.53-14.36c-.1-1.81.11-3.69-1.31-5.17-32.13,0-64.26,0-96.38-.25-4.11,0-3.64,2.16-3.57,4.7,1.07,42.51,12.34,82.08,35.13,118q49,77.31,137.52,101.61c19.35,5.3,39.14,7.56,59.18,7.77a30.23,30.23,0,0,0,4.68,5.78q52.69,52.65,105.38,105.31c1.71,1.71,3.1,4,5.94,4.21,1.67-.52,2.74-1.85,3.9-3q55.13-55.05,110.21-110.15A5.59,5.59,0,0,0,963.71,232.78Z"/><path class="cls-1" d="M848,348q-32.18-32.06-64.33-64.11Q759.83,260.09,736,236.27c-1.24-1.23-2.09-3.08-4.18-3.26q0,47.92,0,95.83c0,1.05.58,2.38-.83,3.09-1.8,1.94-1.25,4.27-.94,6.47a84.92,84.92,0,0,1,.37,10.21c.26,4.49-1.25,9.13,1.27,13.4q.07,48.69.11,97.38c0,3.07.14,4.65,4.07,4.64q112.38-.19,224.75-.11c.83,0,1.65-.14,2.48-.21a.89.89,0,0,1,0-.58c-.4-1.95-2-3-3.24-4.31Q906.15,405,852.33,351.22C851.05,349.94,849.94,348.4,848,348Z"/><path class="cls-1" d="M360.85,580l-115.31,115c1.93,1.49,3.46.94,4.86.94q110.93,0,221.85.1c3.45,0,4.8-.43,4.79-4.45q-.21-112.18-.11-224.36c0-.83-.09-1.66-.13-2.49-2.26.08-3.52,1.75-4.91,3.14Q418,521.69,364.08,575.59A13.88,13.88,0,0,0,360.85,580Z"/><path class="cls-1" d="M127,232.5a82.81,82.81,0,0,0-18.62,0,4.39,4.39,0,0,0-4.31.31c-57.48,7-101.4,55.83-102,113.65-.13,12.82.07,25.65.12,38.47,2.62-.64,2.15-3.06,2.56-4.79,4.19-17.34,13.72-31.05,28-41.59,5.66-4.18,12.15-6.71,18.61-9.31,3.58-5.82,5.27-12.52,9-18.31,23-35.21,69.35-43.08,102.13-17.09,30.33,24,36.09,70,7.46,101.62-7.12,7.87-16.07,13.4-26,17.35-2.59,1-5.54,1.39-7.63,3.53-4,9-8.57,17.51-15.55,24.77a72.79,72.79,0,0,1-34.48,20c-1.89.5-4.52-.11-5.31,2.68,20.76-.28,41.62,1.93,62.2-2.67a115.81,115.81,0,0,0,89.93-126c-5.86-53.19-48.38-96.18-101.11-102.23C130.4,232.16,128.68,232.61,127,232.5Z"/><path class="cls-2" d="M963.69,103q0,14.06,0,28.11a19.87,19.87,0,0,0,.13,8.88q16.23,68.4,83.18,89.87c3.82,1.23,7.86,1.16,11.74,2H1099c6.47-1.93,13.11-3.41,19.36-5.87,38.93-15.31,63.84-43,73.63-84a177.92,177.92,0,0,1-44.93-8.16c-2.55,1.59-2.72,4.47-3.65,6.9-13.28,34.71-52,52.68-86.81,40.26-26.32-9.38-44.6-34.8-45.53-61.24-1.1-31.39,18.66-57.89,44.1-67.27,2.43-.89,5.31-1.09,6.89-3.64a178.35,178.35,0,0,1-8.15-44.93c-31.25,6.92-55.24,24.3-72.73,50.82C971.49,69.35,965.94,85.58,963.69,103Z"/><path class="cls-2" d="M360.85,580q45.54-45.44,91.08-90.86c8.23-8.2,16.57-16.29,24.87-24.43-1.53-1.58-3.45-.69-5.14-.69q-50.34-.18-100.67-.22H350.92l-98.33.17H246.3c.38,2.41,2.23,3.41,3.52,4.71Q303.43,522.34,357.1,576C358.39,577.27,359.6,578.64,360.85,580Z"/><path class="cls-2" d="M1192.84,892.39c-.56-9.59.91-21.25-.92-32.85-4.39-27.71-29.59-48.83-58.08-48.55s-53.27,21.84-57,49.69c-4.89,36.13,21.49,66.82,57.87,67.15,18,.17,36-.07,53.94.12,3.67,0,4.38-1.22,4.31-4.56C1192.71,913.74,1192.84,904.08,1192.84,892.39Z"/><path class="cls-5" d="M119.33,180.24c8.13,26.84,25.91,43.5,53.07,50.23a40.33,40.33,0,0,0,5.41.6c2.27,1.05,4.82-.32,7.08.84,14.44,0,28.88-.07,43.32.13,3.66.05,5-.93,4.84-4.74-.56-17.55.77-35.13-.71-52.67a5.74,5.74,0,0,1,.54-1.9c-1.69-4.78-3.12-9.68-5.13-14.32-8-18.43-21.59-31.07-40.34-38.22a26.51,26.51,0,0,1-2.61-1.31c-4.87-3.94-10.9-4.12-16.59-4.31-15.3-.52-30.62-.2-45.93-.16-3.71,0-6.81,1-6.76,5.42.18,18-1.22,35.93.89,53.85C116.7,176.12,116.83,178.73,119.33,180.24Z"/><path class="cls-5" d="M48,599.68c0,9.81.16,17.81-.07,25.8-.1,3.58,1.2,4.52,4.61,4.49,14.49-.16,29,.44,43.46-.17,33.89-1.44,62.57-25.72,67-59,2.38-17.88.43-35.89,1-53.83.08-2.52-1.29-3-3.45-3-16.32,0-32.73-1.07-48.94.27-32.52,2.68-57.45,26.51-62.73,58C47.22,581.93,48.66,591.73,48,599.68Z"/><path class="cls-1" d="M732.08,127V107l-.33-46c-1.16-1.19-2.67-1.18-4.17-1.3C698.27,57.32,676.32,36,673.25,7c-.23-2.18-.31-4.36-2.34-5.78H600c.24,72.66,58.63,131,131.78,131.62C732.93,130.93,732.42,129,732.08,127Z"/><path class="cls-3" d="M1078.87,752.92c0,31.36,25.77,57,57.26,57,31,0,56.71-25.83,56.71-57,0-31.36-25.77-57-57.26-57C1104.53,695.94,1078.87,721.74,1078.87,752.92Z"/><path class="cls-3" d="M1017.49,811.86c-30.54-.52-57.13,25.52-56.53,57.3.61,32.48,25.59,56.51,57,56.43,31.72-.08,56.58-24.57,56.79-57.19C1075,837.28,1048.7,811,1017.49,811.86Z"/><path class="cls-5" d="M1025,696.06l-7.9-.26a9.52,9.52,0,0,0-6.19.12c-6.67,1.78-13.31,3.49-19.56,6.7-21.1,10.85-33.13,35.14-29.62,58.68a56.75,56.75,0,0,0,59.87,48.46c25.78-1.77,47.69-20.22,52.45-47.84,4.91-28.52-13.69-57.34-42.86-64.5C1029.09,696.91,1026.74,697.72,1025,696.06Z"/><path class="cls-1" d="M317.12,785.94c-1.47-.12-2,.91-2.62,1.57q-38.88,38.81-77.79,77.62c-1.88,1.88-1.79,2.91,0,4.72q38.77,38.58,77.37,77.34c2.07,2.08,3.17,1.84,5.11-.1q38.59-38.76,77.37-77.34c1.86-1.84,1.78-2.84,0-4.64q-38.78-38.58-77.43-77.29C318.44,787.13,317.69,786.47,317.12,785.94Z"/><path class="cls-3" d="M731.75,362V348c-5.09-2.44-10.54-1.83-15.91-1.86-2.44,1.68-.64,1.93.8,2.3-1.3.22-2.42-.6-3.68-.66a111.4,111.4,0,0,0-61.88,29.6A112.57,112.57,0,0,0,616.71,439c-.61,3-1.9,4.83-5.23,4.74-1.3,0-2.69.09-3.51,1.42,2.53,2.23,7.14-1.1,8.46,2.2,1,2.61-.27,6.13-.48,9.26-.08,1.15.09,2.34,0,3.48-.38,3.18,1.17,3.93,4.08,3.91a109.2,109.2,0,0,0,54.22-14.36,112.56,112.56,0,0,0,47-50.58c5.19-11,8.79-22.52,9.7-34.76A9.59,9.59,0,0,1,731.75,362Z"/><path class="cls-2" d="M714.9,347.08l16.85.91c.79-5.4-.59-10.7-.7-16.06-3.44-30.61-17.51-55.53-41.16-74.89-20.08-16.45-43.42-24.59-69.44-25.14-3.89-.09-5,1.12-4.55,4.76.28,2.13-.32,4.46.3,6.45,1.74,5.61-.43,7.76-5.88,7.58,5.37,1.63,6.23,6,7.52,10.8,12.68,46.69,42.83,75.24,90,85.84a16.83,16.83,0,0,0,4.94.57A3.38,3.38,0,0,0,714.9,347.08Z"/><path class="cls-3" d="M577,258.09c-5.76-1.66-9.66-6.27-14.58-9.28a111.56,111.56,0,0,0-46.1-16c-4-.45-7.9-.65-11.87-.9-3.4-.21-4.65.85-4.6,4.44a120.49,120.49,0,0,0,7.87,40.24c4.29,11.69,11.69,21.5,18.44,31.72,5.44,7.9,12.57,14.06,20.27,19.6a109,109,0,0,0,52.33,20.34l2.3.07c1.87,0,3.58.83,5.43.94,3,0,6.09.55,9-.66,3.07-3.81,1.84-8.3,1.48-12.41-2-22.88-9.73-43.61-24-61.74A130,130,0,0,0,577,258.09Z"/><path class="cls-2" d="M615.77,347.92,606,348c-1.4,1.14-2.81-.19-4.22,0h-3c-15,.84-28.62,6-41.6,13.06-11.22,6.11-20.83,14.33-29.46,23.72a7.53,7.53,0,0,0-1.57,2.52c-3.45,5.27-7.05,10.44-10.32,15.82-10.53,17.31-15.55,36.18-16,56.4-.1,4,1.35,4.58,4.84,4.5,23.82-.55,45.41-7.62,64.69-21.65,2.43-1.76,4.84-3.53,7.26-5.29,5.47-2.24,8.88-7,12.52-11.15,18-20.55,27.26-44.63,28.05-71.93C617.28,351.88,617.73,349.57,615.77,347.92Z"/><path class="cls-1" d="M615.77,347.92c.76,33.2-11,61.29-34.58,84.53-1.54,1.51-3,3.06-4.54,4.59,9.89,4.83,20.46,7,31.31,8.09,8.68-.21,8.47-.26,10.7-8.82q18.48-71,90.26-86.55l3.9-.84a1.16,1.16,0,0,0,0-1.9c-27.26-4.4-50.29-16.61-68.71-37.29a107.28,107.28,0,0,1-25.87-52.05c-1-5.3-2.67-7.65-8-7-11.6.22-22.5,3.6-33.3,7.4-.18,2.71,2.31,3.45,3.75,4.86C604.56,286.29,616.52,314.48,615.77,347.92Z"/><path class="cls-2" d="M571.68,606.89c-14.85-11.63-31-20.59-49.68-24.43a134.83,134.83,0,0,0-22.77-2.61c-3.62-.12-4.41,1.07-4.34,4.49.48,25.7,8.78,48.54,24.64,68.7.91,1.16,1.68,2.44,2.52,3.67,1.26,4.27,4.85,6.72,7.88,9.43,21.21,19,45.92,29.49,74.59,30.13,2-.08,4,.2,5.72-1.21,1.77-2.92.81-6.15,1.06-9.24-1.4-30.69-14.13-56.06-36.19-77.05A5.84,5.84,0,0,0,571.68,606.89Z"/><path class="cls-2" d="M650,784.81c14.85,11.61,31,20.63,49.65,24.49A143.66,143.66,0,0,0,722.42,812c4,.18,4.62-1.25,4.54-4.81-.57-25.51-8.82-48.2-24.52-68.25-.92-1.17-1.7-2.44-2.55-3.66-1.07-4.38-4.8-6.69-7.78-9.38-21.23-19.15-46-29.68-74.79-30.33-2,.08-4-.2-5.73,1.23-1.83,3.23-.76,6.76-1.05,10.15,1.81,30.15,14.26,55.27,36.05,76A7.81,7.81,0,0,0,650,784.81Z"/><path class="cls-3" d="M522,734.89c-3,5.89-7.68,10.67-11.08,16.36-10.29,17.19-15.37,35.74-16,55.67-.13,3.93,1,5.15,5,5a113.06,113.06,0,0,0,66.84-23.4c1.71-1.29,3.51-2.49,5.26-3.73,5.24-2.59,8.87-7.08,12.42-11.37,14-16.88,23.39-35.94,26.11-58a80.22,80.22,0,0,0,.4-8.48c-.25-3.38.59-6.82-.62-10.14-2-1.61-4.37-.73-6.57-1-31.47.45-57.53,13.08-79.38,35.23A8.68,8.68,0,0,0,522,734.89Z"/><path class="cls-3" d="M699.83,655c3.7-5.67,7.52-11.27,11.07-17A104.42,104.42,0,0,0,726,592c1.17-12.62,1.37-12.4-11.2-11.24-22.16,2.05-41.7,10.35-59.2,23.86a40.72,40.72,0,0,1-3.8,2.34c-8.84,6-15.6,14-21.46,22.67C620,645.09,613.23,662,611.2,680.56c-.26,2.33-.19,4.64-.27,7,.2,2.45-.49,5,.59,7.35,1.07,1.16,2.5,1,3.86,1,26.29-.22,49.2-9.6,69.58-25.76C690.54,665.72,696.18,661.31,699.83,655Z"/><path class="cls-1" d="M903,611.89q0-32,0-63.94c-.36-1.85-1.88-2.67-3.25-3.55a63.31,63.31,0,0,1-19.46-19.57c-1-1.65-2.09-3.44-4.35-3.75h-64c-2.44.37-3.47,2.38-4.6,4.15a62.61,62.61,0,0,1-19.09,19.08c-1.76,1.14-3.78,2.16-4.12,4.62v62c.22,2.08,1.8,3.13,3.33,4.08a66,66,0,0,1,21.36,21.84c.77,1.24,1.49,2.64,3.17,2.95h63.89c1.69-.31,2.42-1.72,3.18-3a66.32,66.32,0,0,1,21.48-21.93A4.53,4.53,0,0,0,903,611.89Z"/><path class="cls-1" d="M398.94,58.14H335c-2.07.25-3.12,1.83-4.07,3.35a64.18,64.18,0,0,1-20.15,20.25c-1.25.8-2.55,1.62-2.84,3.27v64c.3,1.66,1.6,2.49,2.86,3.28a65.8,65.8,0,0,1,21.06,21.64c.78,1.25,1.5,2.65,3.19,3H398.9c2.21-.56,3-2.58,4-4.2a64.12,64.12,0,0,1,19.72-20c1.78-1.13,3.81-2.17,4.15-4.64q0-31,0-62c-.33-2.47-2.35-3.49-4.12-4.62a62.61,62.61,0,0,1-19.08-19.09C402.41,60.52,401.38,58.51,398.94,58.14Z"/><path class="cls-1" d="M616,997.36c0,10.83.1,21.66-.06,32.49-.05,3,.67,4,3.85,4q32.23-.21,64.48,0c3.25,0,3.81-1.09,3.8-4q-.17-32.23,0-64.48c0-2.92-.56-4-3.8-4q-32.24.23-64.48,0c-3.16,0-3.89,1.07-3.85,4C616.13,976,616,986.7,616,997.36Z"/><path class="cls-1" d="M778.8,903.58c0-10.67-.09-21.33.06-32,0-2.84-.81-3.68-3.66-3.66q-32.49.15-65,0c-2.51,0-3.5.55-3.48,3.28q.15,33,0,66c0,2.9,1.27,3.18,3.6,3.17,21.5-.06,43-.11,64.48,0,3.52,0,4.09-1.3,4-4.35C778.71,925.24,778.8,914.41,778.8,903.58Z"/><path class="cls-1" d="M706.79,997.94c0,10.67.11,21.33-.07,32-.05,3.08.82,3.92,3.91,3.9q32.25-.21,64.49,0c2.72,0,3.75-.61,3.74-3.57q-.18-32.75,0-65.48c0-2.66-.9-3.41-3.45-3.4q-32.74.1-65.48,0c-2.91,0-3.17,1.3-3.16,3.61C706.83,976,706.79,986.94,706.79,997.94Z"/><path class="cls-1" d="M688,903.8c0-10.67-.11-21.33.07-32,0-3.08-.83-3.92-3.92-3.9q-32.24.21-64.48,0c-2.72,0-3.76.61-3.74,3.57q.18,32.75,0,65.48c0,2.66.9,3.41,3.45,3.4q32.75-.11,65.48,0c2.91,0,3.17-1.31,3.16-3.61C688,925.79,688,914.79,688,903.8Z"/><path class="cls-3" d="M398.94,58.14A89.74,89.74,0,0,0,426.75,86c7.89,3,15.64,6.42,24.13,7.46.49.06.95.3,1.44.38,7.84,1.26,8.6.63,8.6-7.16,0-19.31-.09-38.62.08-57.93,0-3.73-1.05-4.84-4.8-4.81q-30.21.25-60.42,0c-4.16-.05-5.19,1.42-4.87,5.19a68.32,68.32,0,0,0,5.62,23.06C397.42,54.12,398.82,55.88,398.94,58.14Z"/><path class="cls-3" d="M784.09,548.93c8.5-6.06,17-12.13,22.93-21,1.56-2.33,3.25-4.57,4.88-6.85,3.05-7.86,6.83-15.49,7.5-24.1,0-.48.29-1,.37-1.44,1.23-7.86.63-8.58-7.19-8.58-19.31,0-38.63.09-57.93-.08-3.75,0-4.83,1.07-4.8,4.8.17,20.14.2,40.29,0,60.43,0,4.19,1.48,5.16,5.21,4.84a75,75,0,0,0,24.42-6.3C781,550,782.33,548.92,784.09,548.93Z"/><path class="cls-3" d="M307.91,85C319.46,78.61,327.8,69,335,58.14c3-7.86,6.83-15.49,7.49-24.1,0-.48.29-.95.37-1.44,1.23-7.86.63-8.58-7.2-8.58-19.31,0-38.63.1-57.94-.08-3.76,0-4.8,1.12-4.77,4.82.16,20.15.2,40.3,0,60.44,0,4.23,1.56,5.12,5.24,4.81A74.46,74.46,0,0,0,307.91,85Z"/><path class="cls-3" d="M875.88,521.08c7.17,10.82,15.51,20.46,27.06,26.87a73.42,73.42,0,0,0,30.28,9c3.28.22,4.74-.6,4.71-4.31-.16-20.48-.13-41,0-61.44,0-3.24-1-4.32-4.25-4.3q-30.72.18-61.44,0c-3.64,0-4.6,1.31-4.38,4.66a67,67,0,0,0,5.63,23.56C874.35,517.06,875.76,518.81,875.88,521.08Z"/><path class="cls-3" d="M426.76,148c-5.23,4.27-11.18,7.61-15.87,12.58a79.06,79.06,0,0,0-12,16.29,68.36,68.36,0,0,0-8,28.51c-.18,3.33.71,4.7,4.37,4.67q30.71-.22,61.43,0c3.26,0,4.3-1,4.28-4.28q-.18-30.71,0-61.43c0-3.66-1.35-4.65-4.67-4.34a75.21,75.21,0,0,0-24.93,6.29C429.89,147,428.52,148,426.76,148Z"/><path class="cls-3" d="M812,639.78a70.6,70.6,0,0,0-25.19-26.7,23.89,23.89,0,0,1-2.67-2.17c-8.19-3.11-16.24-6.7-25.12-7.49-1.32-.12-2.63-.31-3.94-.5-3.72-.53-5.24.63-5.2,4.82.22,20.14.19,40.28,0,60.43,0,3.73,1.06,4.82,4.8,4.79,20.14-.16,40.29-.2,60.43,0,4.17,0,5.13-1.44,4.87-5.19A69.32,69.32,0,0,0,812,639.78Z"/><path class="cls-3" d="M903,611.89a71.26,71.26,0,0,0-27.11,27.89,68.36,68.36,0,0,0-8,28.51c-.18,3.34.72,4.69,4.37,4.67q30.72-.24,61.44,0c3.29,0,4.28-1,4.26-4.29-.11-20.48-.14-41,0-61.44,0-3.7-1.42-4.59-4.7-4.31A73.9,73.9,0,0,0,903,611.89Z"/><path class="cls-3" d="M335,176.84A71.37,71.37,0,0,0,307.9,149a74.65,74.65,0,0,0-29.78-9c-3.7-.37-5.27.59-5.23,4.81.23,20.14.19,40.29,0,60.43,0,3.72,1,4.85,4.79,4.82,20.14-.17,40.29-.2,60.44,0,4.16,0,5.13-1.43,4.87-5.2A69.37,69.37,0,0,0,335,176.84Z"/><path class="cls-5" d="M245.06,522.17V636.85c1.8.62,2.37-1,3.2-1.78q26.17-26.07,52.3-52.19c2-2,2.73-3.26.34-5.62-18-17.79-35.82-35.72-53.72-53.59A19,19,0,0,0,245.06,522.17Z"/><path class="cls-1" d="M670.91,1.17c.63,3.72,1.33,7.43,1.89,11.16,4.05,27.44,30.61,49.78,58.94,48.66,0-19,.07-38,.21-56.95,0-2.4-.69-3.1-3.08-3.08C709.55,1.1,690.23,1.11,670.91,1.17Z"/><path class="cls-1" d="M699.83,655c-6,4.65-10.82,10.61-16.84,15.29-19.76,15.35-42.12,23.47-67,24.8-.46,1.84,1.4,1,1.93,1.68q47.31,2.07,79.76,36.56c.67.72,1.49,1.3,2.23,2,10.6-23,11.31-46.6,3.64-70.56C702.48,661.39,701.07,658.21,699.83,655Z"/><path class="cls-1" d="M611.77,686.84q3.75-45.17,36.81-76.18c1.18-1.11,2.75-1.92,3.24-3.66-25.11-11-50.49-11.9-76.15-2-1.38.53-2.66,1.28-4,1.93,8.45,8.47,16.6,17.15,22.77,27.58a110.19,110.19,0,0,1,15.63,50.4C610.78,685.42,609.89,687.31,611.77,686.84Z"/><path class="cls-1" d="M522,734.89c3.14-1.42,4.77-4.48,7.15-6.71q31.15-29.28,73.81-31.45c.72-.32,1.25-.75.93-1.66q-47.16-2.09-79.56-36.44c-.68-.71-1.51-1.28-2.26-1.92C510.8,682.76,511.27,708.82,522,734.89Z"/><path class="cls-1" d="M526.22,387.26c2.38-.76,3.56-2.9,5.15-4.54,18.57-19.14,41-30.51,67.5-33.92a1,1,0,0,0,0-1.65q-40.85-5.46-69-35.54c-1.12-1.2-2.45-2.2-3.68-3.29C515.31,334.64,515,361,526.22,387.26Z"/><path class="cls-1" d="M610.12,707.92q-3.71,44.05-36,74.3a24.64,24.64,0,0,0-2.15,2.61c26,10.81,52,11.26,78,0-8.4-8.49-16.53-17.14-22.66-27.55A111.37,111.37,0,0,1,611.79,708,1,1,0,0,0,610.12,707.92Z"/><path class="cls-6" d="M104.06,232.79l4.31-.31c-.69-3.14-3-.83-4.5-1.34C103.94,231.69,104,232.24,104.06,232.79Z"/><path class="cls-7" d="M1010.86,695.92l6.19-.12a1.08,1.08,0,0,1,0-.79c-2.4.13-4.94-1-7.13.87Z"/><path class="cls-7" d="M184.89,231.91c-2.18-1.78-4.7-.7-7.08-.84l.07.38-.06.38Z"/><path class="cls-8" d="M127,232.5l5,.33a2.29,2.29,0,0,1,0-.74A10.78,10.78,0,0,0,127,232.5Z"/><path class="cls-2" d="M1190.59,457.45q-53-53-106.06-106c-1.61-1.61-2.94-3.73-5.6-3.87-2.29.84-3.67,2.8-5.3,4.43q-49.73,49.67-99.41,99.39c-3.76,3.76-7.5,7.53-11.38,11.16a.75.75,0,0,0,.33,1.14q32.21.1,64.41.22c12.15,0,24.3,0,36.56.64-4.71,1-9.46,1.9-14.13,3.1-48,12.35-82.8,52.82-87.25,102-2,21.74-.41,43.59-.73,65.38,0,.55.52,1.1.8,1.64,1.8-1.3,1.93-3.39,2.47-5.27,6.29-21.65,20-36.66,40.7-45.38,1.86-.79,4-1.23,4.79-3.41l-.74.16a98.14,98.14,0,0,1,.67-14.43c3.87-31.54,31.42-57.13,63-58.65,23-1.1,45.94-.14,68.91-.62,3.81-.08,4.26,1.55,4.24,4.73-.11,20.32-.05,40.64-.06,60.95a95.92,95.92,0,0,1-.88,13.42c-4.48,31.85-34.22,57.79-66.27,57.59-1.57,0-3.45.58-4.2-1.65,0-.16.07-.32.1-.48-1.81.28-1.91,2.17-2.41,3.58-8.94,25.25-26.73,40.41-52.7,46.25-1.41.32-3,.17-3.91,1.73a1.46,1.46,0,0,0,.83,1.34c2.59.89,5.14,1.27,7.53-.52q26.23-.07,52.45-.17c56.2-.26,103.11-38.21,115.08-93,.72-3.32.51-6.88,2.37-9.93v-130A23.13,23.13,0,0,0,1190.59,457.45Z"/><path class="cls-4" d="M1066.47,464.38c1.46,1,2.82.54,4.44.24A4.33,4.33,0,0,0,1066.47,464.38Z"/><path class="cls-1" d="M1062,48.82c-29.53,8.9-47.55,28.51-51.7,59a68.45,68.45,0,0,0,55.85,77c37.83,6.73,69.91-14,80.85-51a259,259,0,0,1-28-13.9c-3.45,0-3,3-3.66,4.93-3.81,11.84-11.14,20.32-23,24.36-25.41,8.63-49.53-12.22-47.46-36.87,1.41-16.67,13.63-28.15,27.12-32.15,1.74-.52,4.13-.47,4-3.33A260,260,0,0,1,1062,48.82Z"/><path class="cls-5" d="M965.39,107.87c0-1.78,0-3.65-1.7-4.91-2.83-9.65-4.22-19.66-8.23-29C939.72,37.22,912.71,13.43,874,4.17c-35.31-8.43-67.88-.84-96.71,21.14-22.79,17.38-36.86,40.6-43.09,68.54-1,4.31-1.4,8.74-2.08,13.11-2.62,2.74-1.52,6.18-1.67,9.34a47.39,47.39,0,0,0,.27,9.3c2.51,10,2.86,20.34,6.52,30.13,10.65,28.49,29.09,50.14,55.78,64.7,11.49,6.27,23.56,10.81,36.83,11.37a140.51,140.51,0,0,0,36.19,0c24.69-2.11,44.92-13.51,62.57-30.18a113.51,113.51,0,0,0,35-65.84c.35-2.13,1.1-4.18,1.59-6.31C965.77,122.27,965.4,115.07,965.39,107.87ZM848.2,184.45c-37.71-.37-68-30.87-67.78-68.19.25-37.62,30.71-68.05,68.07-68,37.52,0,68.65,31.38,68.12,68.55C916.08,154.5,885.42,184.82,848.2,184.45Z"/><path class="cls-5" d="M1042.6,1086.11q-38.5-38.52-77-77.07c-2.22-2.24-3.53-2-5.62.11q-38.25,38.42-76.68,76.66c-2.29,2.28-2.42,3.64-.05,6q37.92,37.7,75.62,75.61c2.56,2.57,4.25,2.76,6.92.08q38-38.27,76.26-76.36c.82-.82,1.59-1.68,2.53-2.67C1043.85,1087.57,1043.28,1086.79,1042.6,1086.11Zm-40.63,4.31q-18.76,18.63-37.41,37.38c-1.37,1.38-2.26,1.87-3.93.18q-18.6-18.8-37.41-37.38c-1.73-1.72-1.58-2.76.07-4.4,12.41-12.29,24.73-24.66,37.1-37,.66-.65,1.14-1.68,2.56-1.57.49.44,1.13,1,1.71,1.54,12.47,12.45,24.9,25,37.44,37.34C1003.75,1088.16,1003.39,1089,1002,1090.42Z"/><path class="cls-2" d="M316.59,896.8c8.49,0,17-.13,25.47.06,3.12.07,3.95-1,3.93-4q-.18-25.47,0-50.94c0-3.16-1.08-3.93-4.05-3.91q-25.21.16-50.44,0c-3.22,0-4.4,1-4.38,4.27q.18,25.23,0,50.45c0,3.44,1.41,4.19,4.49,4.13C299.93,896.7,308.26,896.8,316.59,896.8Z"/><path class="cls-5" d="M712.87,347c0,.63,0,1.27,0,1.9h5.59l-3.51-1.84Z"/><path class="cls-9" d="M601.8,348.83c1.49.09,3.05.49,4.23-.88-1.64-.29-3.22-1.11-5-.69C600.76,348.05,601.21,348.47,601.8,348.83Z"/><path class="cls-10" d="M601.8,348.83c-.24-.52-.49-1-.74-1.57l-2.18-.11c0,.55,0,1.1,0,1.65Z"/><path class="cls-1" d="M603.87,695.07l-.93,1.66,7,.19a1.49,1.49,0,0,0,2.08,0l5.89-.21L616,695.06l-4-.2a1.63,1.63,0,0,0-2.14,0Z"/><path class="cls-11" d="M609.83,694.82l2.14,0c-.07-2.67-.13-5.34-.2-8l-1.69-2Q610,689.85,609.83,694.82Z"/><path class="cls-12" d="M612,697l-2.08,0q.09,5.51.19,11l1.67,0C611.86,704.29,611.94,700.62,612,697Z"/><path class="cls-2" d="M843.86,531c-1.65-.05-2.32,1-3.11,1.81-15.32,15.29-30.59,30.63-46,45.83-2.26,2.23-2,3.54.11,5.62q22.89,22.66,45.56,45.55c2.22,2.24,3.44,2.05,5.56-.09q22.65-22.89,45.58-45.52c2.37-2.34,2.26-3.65,0-5.92-15.17-15-30.19-30.07-45.28-45.12C845.45,532.33,844.55,531.6,843.86,531Z"/><path class="cls-2" d="M418,118.09c-.65-.76-1.35-1.68-2.15-2.49C400.7,100.41,385.46,85.27,370.34,70c-2.14-2.16-3.44-2.23-5.62,0Q341.88,93,318.78,115.88c-2.06,2-1.86,3.19.16,5.18q22.62,22.24,44.95,44.78c2.76,2.81,4.28,3.38,7.37.22,14.54-14.89,29.38-29.5,44.09-44.23C416.37,120.8,417.73,120,418,118.09Z"/><path class="cls-5" d="M963.85,290.56c-1.43-.06-2,.91-2.63,1.58q-26.69,26.64-53.38,53.28c-2.14,2.12-1.67,3.38.21,5.26q26.57,26.42,53,53c1.87,1.88,2.92,1.8,4.74,0q26.4-26.58,53-53c1.92-1.91,2.25-3.17.15-5.26q-26.76-26.56-53.37-53.29C964.94,291.52,964.31,291,963.85,290.56Z"/><path class="cls-5" d="M443.3,266.78a111,111,0,0,0-65.75-33.57c-32.26-4.62-61.65,3.27-87.48,23.24-22.55,17.43-37.11,40.33-42.7,68.23-6.89,34.38.51,66,21.87,93.89,17.43,22.77,40.61,36.89,68.57,43.12,4.31,1,8.74,1.4,13.11,2.08a24.7,24.7,0,0,0,20.07,0c8.89-1.7,17.92-2.68,26.53-5.82,41.36-15.09,67.93-44,76.9-86.93C482.71,331.36,471.67,296.18,443.3,266.78Zm-83,148.65a68.3,68.3,0,0,1-68.12-68c-.11-37.42,31.17-68.6,68.44-68.23,37.6.37,68,31,67.77,68.3C428.24,385.12,397.73,415.54,360.34,415.43Z"/><path class="cls-2" d="M369.57,276.75A71.81,71.81,0,0,0,291.89,328c-5.18,22.19-2.35,43.05,11.82,61.29,18,23.17,41.87,32.09,70.86,27,1.15-.2,2.3-.31,3.45-.47,18.63-5.86,33.48-16.45,43.59-33.54C446.92,339.46,418.88,283.05,369.57,276.75Zm-9,111.42c-23.13.15-41.47-17.74-41.64-40.62-.18-23.42,17.71-41.69,40.94-41.82a41.47,41.47,0,0,1,41.94,41.12C402,369.38,383.36,388,360.6,388.17Z"/><path class="cls-2" d="M127.22,275.92a71.8,71.8,0,0,0-77.68,51.2c-5.18,22.19-2.36,43.05,11.82,61.29,18,23.17,41.87,32.09,70.86,27,1.14-.2,2.3-.32,3.45-.47,18.62-5.86,33.48-16.45,43.59-33.54C204.57,338.62,176.52,282.21,127.22,275.92Zm-9,111.42c-23.14.15-41.47-17.74-41.65-40.62-.17-23.42,17.71-41.69,41-41.82A41.45,41.45,0,0,1,159.48,346C159.62,368.54,141,387.2,118.25,387.34Z"/><path class="cls-5" d="M1011.05,581.82c-10,4.14-19.55,9-27.37,16.78-10.44,10.34-17.27,22.59-19.85,37.12a32.9,32.9,0,0,0-1,8.85c.07,14.82.17,29.64-.06,44.46-.07,4.34.79,6.12,5.67,6,14.15-.35,28.31-.13,42.46-.14,2.36-.46,5,1.23,7.13-.87,25.17-1.37,51.88-24.23,57.88-49.52a7.73,7.73,0,0,1,.59-1.32c2.51-1.5,2.52-4.13,3-6.56,1.83-10.41.8-20.92,1-31.38.13-7.15.08-14.31,0-21.47,0-3.61-1.25-6.35-5.37-6.3-18.44.23-36.93-1.4-55.32,1C1016.64,578.91,1013.41,579.31,1011.05,581.82Z"/></g></g></svg>