<svg xmlns="http://www.w3.org/2000/svg" viewBox="0 0 1376.86 1078.86"><defs><style>.cls-1{fill:#c11025;}.cls-2{fill:#f8cd42;}.cls-3{fill:#e02965;}</style></defs><g id="Calque_2" data-name="Calque 2"><g id="Calque_1-2" data-name="Calque 1"><path class="cls-1" d="M1237.82,242.16c-.87,3.23-4,2.12-5.86,2.51-25.64,5.3-47,18.14-64.38,37.3-16.07,17.71-26.3,38.74-29.52,62.51-4.69,34.73,3.91,66.07,26.18,93.4,19.41,23.8,44.58,37.87,74.66,42.78,16.6,2.72,33.5,1.15,50.27,1.2.55,0,1.11-.61,1.66-.94l-6.08-1.94c-23.33-7.51-39.44-22.48-47.39-45.88l-3.78-1.25c-30.51-9.89-50.58-37.06-51-69.05-.63-47.76,44.1-83.5,90.26-71.87,27.29,6.88,44.59,24.58,53.38,51,24.3,7.71,40,24,47.6,48.14,1.23,3.9,2,7.94,3,11.91V343c-1.81-.13-1.76-1.46-2.06-2.82-1.08-4.83-2.07-9.7-3.59-14.4a120.76,120.76,0,0,0-90.54-81.43c-3.31-.69-7.28.2-9.78-3.16C1259.87,242.64,1248.82,241.61,1237.82,242.16Z"/><path class="cls-1" d="M1327.82.05c-.35,2.47-2.28,2-3.86,2-2.81.08-5.63.09-8.45.14C1304,5,1293.16,9.23,1283.66,16.62c-11.93,9.27-19.56,21.46-24.83,35.36-.68,3.41-1.59,6.79-2,10.23-2.14,18.74-.49,37.55-1.06,56.32-.08,2.71,1.29,2.91,3.35,2.83,21.55-.78,43.23,2,64.64-2.44,15.91-5.53,29.34-14.42,39.13-28.42,7-10,10.62-21.21,12.73-33,.64-2.09-.69-4.54,1.17-6.41v-50l-1-1Z"/><path class="cls-2" d="M1263.83,1078.86c7.86-2.45,15.86-4.34,23-8.82a58.82,58.82,0,0,0-22.29-108.3c-31.48-4.6-61.68,16.79-66.66,47.23-5.4,33,15.12,62.88,47.27,68.88,1,.17,2,0,2.65,1Z"/><path class="cls-3" d="M0,396c2.22,8.48,4.38,16.89,9.14,24.52C21.8,440.83,46.9,451.68,70.9,446.8,94.4,442,113.26,422.55,117,399.21c6.06-37.69-22.35-70.19-60.42-69.13C29.35,330.84,4.94,352.43,1,379.27c-.14,1,0,2-1,2.72Z"/><path class="cls-3" d="M1376.81,402c-1-4-1.76-8-3-11.91-7.64-24.15-23.3-40.43-47.59-48.14,6.35,25.93,1.5,49.49-16.57,69.26-19.52,21.37-44.23,27.69-72.3,21.91,8,23.4,24.06,38.37,47.39,45.88l6.08,1.94,2,.2,1.54.65,82.43.2Z"/><path class="cls-3" d="M541.89,1.07c0-.34,0-.68,0-1h-73c0,.33-.05.65-.07,1l5.1.1Z"/><path class="cls-2" d="M468.87,1c0-.32,0-.64.07-1h-55c.11.34.21.67.31,1Z"/><path class="cls-1" d="M1375.81.05l1,1C1377,.19,1376.67-.14,1375.81.05Z"/><path class="cls-3" d="M1135.84,430c0-15.66-.12-31.32.09-47,0-3.86-.94-5-4.94-5.1-64-1.25-120.25-50.85-130-114.42a85.23,85.23,0,0,1-1.32-17.39c.18-3.34-1.14-4.18-4.35-4.17q-47.49.17-95,0c-4,0-4.63,1.33-4.53,4.89.69,23.76,4.32,47,11.9,69.55,21.38,63.58,62.18,110.51,121.89,140.79a224.66,224.66,0,0,0,88,24c4.31.28,8.67.28,12.93.9,4.72.69,5.44-1.35,5.38-5.52C1135.7,461,1135.84,445.47,1135.84,430Z"/><path class="cls-2" d="M656,138.23c0,33.32,0,66.64-.18,100,0,3.75,1.64,3.88,4.49,3.81,52.19-1.34,99.37-17.37,140.87-49.06C844.29,160,873,117.14,887.51,64.84A244.88,244.88,0,0,0,895.9,7.21C896,3.09,895,1.93,890.81,2c-32.66.18-65.31.09-98,.09-.24,2-.6,3.94-.7,5.93-1.89,40.39-18.8,73.41-49.61,99.18C717.61,128,688.46,138,656,138.23Z"/><path class="cls-3" d="M1137,103.05c0-32-.14-63.95-.08-95.92,0-3.59-.48-5.19-4.76-5.18q-115.65.21-231.31.1h-3c.36,2.2,2,3,3.06,4.11Q1016,121.36,1131.16,236.52c1.4,1.4,3,2.61,4.49,3.91.07-2.33.15-4.66.19-7C1136.48,190,1134.49,146.49,1137,103.05Z"/><path class="cls-3" d="M290.41,685.91c-5.78-18.32-17.87-30.81-35.45-38.19a155.57,155.57,0,0,1,1.89-26.82c10.43-65.53,78.28-110.87,143.24-96.4,61.76,13.76,104.09,73.94,93.07,138.33C481.92,728.53,414.88,774.1,350,759.36c-23.73-5.39-43.92-16.87-61.18-33.8C293.21,712.5,294.64,699.31,290.41,685.91ZM304,641.49A70.44,70.44,0,1,0,374.34,571,70.61,70.61,0,0,0,304,641.49Z"/><path class="cls-2" d="M1137,103.05c-2.5,43.44-.51,86.93-1.15,130.39,0,2.33-.12,4.66-.19,7l.21,1.64-.07-.08,102,.17c11-.55,22,.48,33-1,52.43-8.16,90.75-43.39,102.3-94.08a87.56,87.56,0,0,0,2.52-18.75c.12-23.63,0-47.27,0-70.9-2.11,11.84-5.74,23.07-12.73,33.05-9.79,14-23.22,22.89-39.13,28.42-.07,3.83.27,7.72-.28,11.48-5.31,36.54-33.42,61.54-70.52,62.29-22,.44-44,0-66,.15-3.25,0-4.25-.93-4.23-4.25.15-22.49,0-45,.15-67.48a66.44,66.44,0,0,1,14.43-41.7c15.65-19.78,36.08-29.3,61.49-27.43,5.27-13.9,12.9-26.09,24.83-35.36,9.5-7.39,20.34-11.6,31.85-14.44-21.83,0-43.66-.5-65.47,0-54.2,1.36-103.52,44.88-112.26,98.52A13.41,13.41,0,0,1,1137,103.05Z"/><path class="cls-3" d="M541.89,1.07,474,1.12c.26.19.5.49.8.55,28.64,6,47.11,23.24,56.39,50.72,39-2.11,73.05,29.22,73.7,68.15.38,22.82,0,45.64.22,68.46,0,3.71-1.36,4.33-4.64,4.31-21.82-.12-43.64-.05-65.47-.09a64.8,64.8,0,0,1-10-.51c-38-6.12-62.88-37.05-60.81-75.48-20-7.06-35-19.82-43.8-39.26-2.23-4.93-3.67-10.22-5.47-15.34L414.6,96a148.36,148.36,0,0,1,1.3,43.67c3.21,15.05,7.73,29.66,16.16,42.69,23.52,36.33,56.57,56.83,100.23,57.69,39.13.76,78.3.13,117.45.28,4,0,5-1.1,5-5-.14-38,.13-76-.14-113.95-.43-61.68-44.8-111.64-106.27-120A58.23,58.23,0,0,0,541.89,1.07Z"/><path class="cls-1" d="M1043.61,655.5c7.56-8.63,14.78-17.55,19.45-28.12,7.61-17.24,11.27-35,9-54.16-2.92-24.64-13.08-45.43-30.92-62.3a98.65,98.65,0,0,0-52.66-26.13c-21.93-3.66-42.85-.58-62.16,9.66-29.71,15.76-48.46,40.33-53.44,74.06-4.35,29.48,2.3,56.29,21.52,79.62,2,2.48,4.94,4.53,5.57,8,1.22-1.1,2.5-2.16,3.66-3.32,21.42-21.39,42.92-42.7,64.15-64.28,3.49-3.54,5.17-3.62,8.72,0C998.72,611,1021.21,633.21,1043.61,655.5Z"/><path class="cls-1" d="M502.92,480.91c1.43,1.71,3.4,1,5.14,1q14.48.09,29,0c27.67-.13,52.41-8.89,74.14-25.87,18.66-14.58,31.65-33.4,39.42-55.69a116.6,116.6,0,0,0,6.36-38.51L656.79,343c-1.49-.15-1.68-1.16-1.91-2.43-4.63-25.67-16.63-47.47-35.41-65.37-17.08-16.29-37.29-27-60.65-31.09-36.73-6.37-69.68,2.2-98.51,26C438.06,288.45,424.5,312,419,340.18c-3.47,17.76-1.66,35.76-2,53.67,0,.71.65,1.43,1,2.15.58-1.72,1.19-3.42,1.71-5.14,7.44-24.49,23.21-40.87,47.54-48.94.84-2,1.75-3.95,2.51-6,12.56-33.55,48.81-53.33,83.63-45.62,30.23,6.69,52.32,29.73,57.09,61.31,4.44,29.45-8.9,57.27-34.63,73.13-6.14,3.78-13.1,5.55-19.4,8.84A71.79,71.79,0,0,1,532,467.38C523.29,474.11,513.3,477.89,502.92,480.91Z"/><path class="cls-1" d="M1098.89,627.93c-1.69,1.45-1,3.42-1,5.16-.06,11-.38,22,0,33a118.29,118.29,0,0,0,26.56,71c14.49,18.12,32.91,30.78,54.7,38.45a112.87,112.87,0,0,0,45.53,6.32c25.85-1.79,49-10.75,69.14-27.35,20.45-16.85,34.16-38.07,40.36-63.65,8.74-36,2-69.45-19.7-99.6-14.71-20.44-34.36-34.46-58-42.81a114.47,114.47,0,0,0-39-6.45c-9.5,0-19,0-28.49,0-1.75,0-3.72-.68-5.16,1l6.08,1.94c23.33,7.51,39.44,22.49,47.39,45.88l3.78,1.26c30.34,9.83,50.34,36.72,51,68.55,1,48-43.88,84-90.23,72.36-27.3-6.88-44.6-24.58-53.39-51-14-4-25.29-12-34.54-23.09C1106.31,649.84,1102.06,639.14,1098.89,627.93Z"/><path class="cls-2" d="M415.9,139.64A148.36,148.36,0,0,0,414.6,96C407.81,68.28,394,45,371.49,27.15A114.81,114.81,0,0,0,322.89,4c-1,15.91-3.57,31.53-8.77,46.66,35.24,7.33,60.28,45.8,53.39,82-7.43,39.13-41.63,64.07-81.23,59.25-28.13-3.43-54.08-26.79-59.7-53.74-3.17.94-6.35,1.85-9.5,2.84-12.1,3.77-24.65,4.74-37.17,5.92,8.91,45.46,49.91,85.08,95.56,92,49.87,7.6,89.89-9.19,119.87-49.58,10.34-13.94,16.64-29.83,19.65-47A20.31,20.31,0,0,1,415.9,139.64Z"/><path class="cls-3" d="M179.91,147c12.52-1.18,25.07-2.15,37.17-5.92,3.15-1,6.33-1.9,9.5-2.84a204.94,204.94,0,0,0,30.21-15,164.44,164.44,0,0,0,42.29-42.29,204.94,204.94,0,0,0,15.05-30.21c5.19-15.13,7.73-30.75,8.76-46.66C323,.1,320.08,1.08,318,1.08q-37.21-.06-74.42,0c-20.64,0-41.29.1-61.93-.08-3.75,0-4.73,1-4.72,4.72q.2,68.41.08,136.84C177,144.67,176.48,147.11,179.91,147Z"/><path class="cls-2" d="M537.75,893.49c-.58-11.31,1.35-24.86-1.73-38.18-6.39-27.64-31.1-47.41-58.76-47.08a60.79,60.79,0,0,0-59,49.94c-6.55,36.21,20.87,70,57.74,70.77,19.14.39,38.28,0,57.42.19,3.59,0,4.5-1.15,4.42-4.56C537.62,914.92,537.75,905.26,537.75,893.49Z"/><path class="cls-2" d="M531.16,52.39c-9.28-27.48-27.75-44.75-56.39-50.72-.3-.06-.54-.36-.8-.55l-5.1-.1-54.62,0c-.3,20.54-1.08,41.08.68,61.59,1.8,5.11,3.24,10.4,5.47,15.33,8.84,19.44,23.79,32.2,43.8,39.26,4.88.93,9.75,2.57,14.66,2.68,17.14.39,34.29.19,51.44.4,3.43,0,3.68-1.59,3.66-4.27-.09-12-.16-24,0-36C534.09,70.72,533.61,61.47,531.16,52.39Z"/><path class="cls-1" d="M656,138.23c32.46-.28,61.61-10.24,86.54-31.08C773.35,81.38,790.26,48.36,792.15,8c.1-2,.46-4,.7-5.93l-74.26.16a82.16,82.16,0,0,1-1.75,14.33c-6.72,28.23-33.85,49.41-61,47.57Z"/><path class="cls-1" d="M667.56,721.73c25.67,11.21,51.57,11.16,77.65,1.55,1.06-.39,2.33-.46,2.81-1.78-1.17-1.18-2.32-2.37-3.51-3.54-23-22.62-35.41-49.87-35.9-82.37-.06-3.7.85-4.84,4.67-4.77a115.62,115.62,0,0,1,56.61,15.55c11.36,6.55,21.08,15,30,24.51,11.39-25.51,12-51.32,2.22-77.43-.82-2.16-1.51-4.36-2.26-6.54-4.53,4.36-8.67,9.12-13.5,13.21C765.22,618,740.88,627.71,713.16,629c-3.5.16-4.57-.92-4.46-4.45A115.51,115.51,0,0,1,723,572.2c7.14-13.13,16.7-24.31,27.77-34.27-15.42-6.13-31.27-10.11-48-8.93-11.45.8-22.64,3-33.21,7.72-.7.31-1.18,1.09-1.76,1.66l3.86,3.88c22.77,22.61,35.1,49.71,35.55,82,0,3.7-.85,4.85-4.67,4.77a115.65,115.65,0,0,1-56.62-15.55c-11.35-6.55-21.08-15-30-24.51-5.49,14-8.66,28.24-8.12,43.43a100.45,100.45,0,0,0,6.7,33.73c.6,1.53,1,3.15,1.42,4.73,4-3.72,7.58-7.86,11.75-11.44q32.49-27.91,75.23-28.6c3.22-.05,4.25.86,4.29,4.19a109.61,109.61,0,0,1-5.6,35.27C695,690.54,683,707.32,667.56,721.73Z"/><path class="cls-3" d="M255.75,448c32.27-.28,58.4-27,58.2-59.46a59,59,0,0,0-59.71-58.45c-32.4.27-58.59,27.26-58.21,60C196.41,422.25,223.2,448.24,255.75,448Z"/><path class="cls-2" d="M288.79,725.56c4.42-13.06,5.85-26.25,1.62-39.65-5.78-18.32-17.87-30.81-35.45-38.19-31.14-10.94-59.29,4-72.11,25.87-20.38,34.85,1.22,81.11,41,87.37,26.79,4.21,51.1-8.27,63.18-32.4C287.58,727.52,288.21,726.56,288.79,725.56Z"/><path class="cls-3" d="M1237.3,590.82c-8-23.39-24.06-38.37-47.39-45.88l-6.08-1.94-2-.19-1.54-.65c-25.77-.07-51.54,0-77.3-.3-4.16,0-5.27,1.07-5.23,5.22.26,25.77.23,51.54.3,77.31l.65,1.53c.06.67.13,1.34.19,2,3.17,11.21,7.42,21.91,15,31,9.25,11.05,20.52,19.14,34.53,23.09-6.35-25.93-1.5-49.49,16.57-69.26C1184.52,591.36,1209.23,585.05,1237.3,590.82Z"/><path class="cls-2" d="M876.89,361.13c5,.29,10,.44,14.9.9,3.31.31,4.19-.91,4.15-4.16-.33-23.57-6.62-45.39-20.23-64.62-24.28-34.3-57.53-51.65-99.81-51.08q0,6.65,0,13.3a21.68,21.68,0,0,1,.88,3.32c2.59,24.84,12.69,46.33,29.31,64.75C825.11,344.6,848.93,356.83,876.89,361.13Z"/><path class="cls-2" d="M684.17,402.09c-12.28,15.39-21.63,32.23-25.61,51.73A139.23,139.23,0,0,0,655.83,477c-.12,3.79.75,5.11,4.85,5,24.47-.59,46.68-7.75,66.58-22l7.27-5.23c1.41-1.41,2.78-2.85,4.23-4.21a118,118,0,0,0,31.92-50.36c2.63-8.07,3.47-16.5,5.2-24.76q0-6.66,0-13.34a113.08,113.08,0,0,0-51.66,10.27C708.73,379.38,695.75,389.81,684.17,402.09Z"/><path class="cls-3" d="M775.89,362.14q0,6.67,0,13.35a20.62,20.62,0,0,1,.89,3.32A110.19,110.19,0,0,0,788.94,419c7.09,13.76,17,25.29,28.27,35.78,12.19,9,24.87,17.09,39.54,21.6A128.78,128.78,0,0,0,891.49,482c3.5.09,4.52-.93,4.45-4.44-.48-26.46-8.74-50.12-25-71-.8-1-1.48-2.18-2.22-3.28-2-2-3.94-4-5.94-6C838.76,373.37,809.94,361.28,775.89,362.14Z"/><path class="cls-3" d="M775.91,255.47q0-6.66,0-13.3c-44.56-.42-78.65,18.56-102.82,55.7-8.94,13.72-13.74,29-16.29,45.11l.15,18.91c6,.55,12-.48,18-.76,1.46-.33,2.91-.67,4.38-1,45.78-9.13,75.84-36.26,91.39-79.94C773.53,272.21,774.06,263.7,775.91,255.47Z"/><path class="cls-1" d="M775.91,255.47c-1.85,8.23-2.38,16.74-5.24,24.75-15.55,43.68-45.61,70.81-91.39,79.94-1.47.3-2.92.64-4.38,1,.47,12.77,2.11,25.32,7,37.27.56,1.39.86,2.88,2.3,3.69,11.58-12.28,24.56-22.71,40.06-29.68a113.08,113.08,0,0,1,51.66-10.27c34.05-.86,62.87,11.23,86.89,35.16,2,2,4,4,5.94,6,1.64-7.77,5.33-14.95,6.34-22.95.81-6.4,1.88-12.76,1.83-19.24-28-4.3-51.78-16.53-70.79-37.59-16.62-18.42-26.72-39.91-29.31-64.75A21.68,21.68,0,0,0,775.91,255.47Z"/><path class="cls-2" d="M58.83,573.34c.07,12.24-2,10.82,9.16,10.47,52.08-1.67,99.29-43,108-94.4a142.89,142.89,0,0,0,2-20.33c.08-3.21-.78-4.28-4.13-4.22-36.11.65-65.83,14.89-89,42.41A110,110,0,0,0,58.83,573.34Z"/><path class="cls-2" d="M799.91,670.88c-8.94-9.48-18.66-18-30-24.51a115.62,115.62,0,0,0-56.61-15.55c-3.82-.07-4.73,1.07-4.67,4.77.49,32.5,12.85,59.75,35.9,82.37,1.19,1.17,2.34,2.36,3.51,3.54,15.35,12.4,32.22,21.78,51.77,25.77A136.31,136.31,0,0,0,823.55,750c3.56.1,4.47-1,4.4-4.46-.48-27.51-9.54-51.79-26.92-73C800.61,672,800.28,671.42,799.91,670.88Z"/><path class="cls-2" d="M930.72,819.86c4.83,53.09,40.52,94,92.17,105.43a127.16,127.16,0,0,0,22.79,2.56c3.12.12,4.37-.61,4.31-4.06-.7-37.15-15.61-67.4-44.57-90.41-21.74-17.28-46.76-25.64-74.74-24.38Q930.71,814.43,930.72,819.86Z"/><path class="cls-2" d="M69.85,183c-12.12-.27-12.12-.27-11.92,8.51,1.19,52.26,43.74,100.6,95.47,108.51,6.42,1,12.86,1.58,19.35,1.94,3.65.2,4.42-1.16,4.34-4.54-.89-37.48-16.18-67.74-45.62-90.79A110.1,110.1,0,0,0,69.85,183Z"/><path class="cls-2" d="M615.9,589c8.93,9.49,18.66,18,30,24.51a115.65,115.65,0,0,0,56.62,15.55c3.82.08,4.72-1.07,4.67-4.77-.45-32.32-12.78-59.42-35.55-82l-3.86-3.88C652.43,526,635.57,516.6,616,512.61a136.42,136.42,0,0,0-23.76-2.73c-3.56-.09-4.47,1-4.41,4.46.49,27.5,9.54,51.79,26.93,73C615.19,587.88,615.53,588.45,615.9,589Z"/><path class="cls-3" d="M667.56,721.73c15.47-14.41,27.4-31.19,34-51.42a109.61,109.61,0,0,0,5.6-35.27c0-3.33-1.07-4.24-4.29-4.19q-42.82.67-75.23,28.6c-4.17,3.58-7.74,7.72-11.75,11.44-12.31,15.18-21.41,32-25.4,51.26a128.42,128.42,0,0,0-2.66,23.72c-.06,3.39,1.13,4.15,4.29,4.1a115.54,115.54,0,0,0,72.62-26.23C665.65,723,666.63,722.4,667.56,721.73Z"/><path class="cls-3" d="M930.72,819.86q0-5.43,0-10.86c-44.11.7-77.84,20.12-101.59,56.93-11.15,17.27-16.63,36.48-17.42,57.07-.16,4,1.06,5.12,5,4.89,27.88-1.62,52.5-11.24,73.5-29.74q32.1-28.27,39.3-70.49C929.9,825.06,929.27,822.28,930.72,819.86Z"/><path class="cls-3" d="M750.78,537.93c-11.07,10-20.63,21.14-27.77,34.27a115.51,115.51,0,0,0-14.31,52.35c-.11,3.53,1,4.61,4.46,4.45,27.72-1.29,52.06-11,73.21-28.88,4.83-4.09,9-8.85,13.5-13.21,11-14.18,19.86-29.44,24.19-47.06a148,148,0,0,0,3.85-25.56c.23-3.63-1-4.5-4.48-4.33a119.15,119.15,0,0,0-65.83,23C755.31,534.58,753.05,536.26,750.78,537.93Z"/><path class="cls-2" d="M897.3,182.23c19.67-19.7,38.71-38.8,57.83-57.81,1.87-1.87,1.81-3,0-4.8-19.12-19-38.16-38.11-57.8-57.77Z"/><path class="cls-1" d="M817.21,454.82C806,444.33,796,432.8,788.94,419a110.19,110.19,0,0,1-12.17-40.23,20.62,20.62,0,0,0-.89-3.32c-1.73,8.25-2.57,16.68-5.2,24.75a118,118,0,0,1-31.92,50.36c-1.45,1.36-2.82,2.8-4.23,4.21,9.08,3.1,18.11,6.27,27.73,7.45a102.55,102.55,0,0,0,48.38-5.17C812.82,456.29,815,455.57,817.21,454.82Z"/><path class="cls-1" d="M1098.7,625.92l-.65-1.53Z"/><path class="cls-1" d="M1180.28,542.16l1.54.65Z"/><path class="cls-1" d="M1294.38,481.77l-1.54-.65Z"/><path class="cls-2" d="M1233.58,431.85c-30.51-9.89-50.58-37.06-51-69.05-.63-47.76,44.1-83.5,90.26-71.87,27.29,6.88,44.59,24.58,53.39,51,6.35,25.93,1.5,49.49-16.57,69.26-19.52,21.37-44.23,27.69-72.3,21.91Zm22.14-26.94c23.48-.05,43-19.59,42.92-43a42.92,42.92,0,1,0-42.92,43Z"/><path class="cls-2" d="M469.76,336c12.56-33.55,48.81-53.33,83.63-45.62,30.23,6.69,52.32,29.73,57.09,61.31,4.44,29.45-8.9,57.27-34.63,73.13-6.14,3.78-13.1,5.55-19.41,8.85-7.25.17-14.36,1.69-21.68,1.48-30.23-.88-58.73-23.22-66.92-52.35-3.83-13.66-3.39-27.18-.59-40.83C468.09,339.93,469,338,469.76,336Zm25.36,25.85c-.17,23.35,19.34,43,42.81,43.11a42.93,42.93,0,1,0-42.81-43.11Z"/><path class="cls-2" d="M1241.08,592.08c30.34,9.83,50.34,36.72,51,68.55,1,48-43.88,84-90.23,72.36-27.3-6.88-44.6-24.58-53.4-51-6.35-25.93-1.5-49.49,16.57-69.26,19.52-21.37,44.23-27.68,72.3-21.91ZM1176,661.71c-.2,23.56,19.51,43.22,43.27,43.15A42.93,42.93,0,1,0,1176,661.71Z"/><path class="cls-1" d="M256.79,123.15a204.94,204.94,0,0,1-30.21,15c5.62,27,31.57,50.31,59.7,53.74,39.6,4.82,73.8-20.12,81.23-59.25,6.89-36.24-18.15-74.71-53.39-82a203.91,203.91,0,0,1-15,30.21c20.8,2.64,35.65,19.76,34.73,40a38.88,38.88,0,0,1-37,37C276.55,158.81,259.42,144,256.79,123.15Z"/><path class="cls-2" d="M941.88,669.94c0,8.66.1,17.31-.06,26-.06,3,.71,4.06,3.87,4q26.47-.21,52.94,0c3.46,0,4.13-1.26,4.11-4.36q-.18-26,0-51.94c0-3.4-.92-4.67-4.5-4.64q-26.22.22-52.44,0c-3,0-4,.87-4,4C942,652,941.88,661,941.88,669.94Z"/><path class="cls-2" d="M374.36,678.13c20.69,0,36.7-15.92,36.78-36.57s-16.46-37.5-36.82-37.36-37.38,17.38-37.11,37.4A36.87,36.87,0,0,0,374.36,678.13Z"/></g></g></svg>